<svg xmlns="http://www.w3.org/2000/svg" viewBox="0 0 244.9 190.97"><defs><style>.cls-1{isolation:isolate;}.cls-2{fill:#5b1a29;}.cls-3{fill:#ffe9cc;}.cls-4{fill:#f78b31;}.cls-5{fill:#6d2432;}.cls-6{fill:#f94848;}.cls-7{fill:#631f2c;}.cls-8{fill:#b23d50;}.cls-9{fill:#a52f45;}.cls-10{fill:#2b0f16;}.cls-11{fill:#ba4253;}.cls-12{fill:#3d2b2e;}.cls-13{opacity:0.46;}.cls-14{fill:#fffbec;}.cls-14,.cls-19,.cls-36{mix-blend-mode:overlay;}.cls-15{fill:#ffd997;}.cls-16{fill:#efbf7b;}.cls-17{fill:#7f2f3b;}.cls-18{fill:#752736;}.cls-19{fill:#ffeabd;opacity:0.36;}.cls-20{fill:#a473e5;}.cls-21{fill:#4a91bc;}.cls-22{fill:#87d0f4;}.cls-23{fill:#b2e4f9;}.cls-24{fill:#ff6ed9;}.cls-25{fill:#ffa92c;}.cls-26{fill:#ffcb48;}.cls-27{fill:#d34654;}.cls-28{fill:#ea4e65;}.cls-29{fill:#ffabe1;}.cls-30{fill:#d13030;opacity:0.54;mix-blend-mode:multiply;}.cls-31{fill:#ffe66c;}.cls-32{fill:#f4b75d;}.cls-33{fill:#ffca85;}.cls-34{fill:#eda548;}.cls-35{fill:#d894ff;}.cls-36{fill:#ffecc6;opacity:0.33;}.cls-37{fill:#ffe9f7;}.cls-38{fill:#ffd2f1;}</style></defs><g class="cls-1"><g id="Camada_2" data-name="Camada 2"><g id="_1" data-name="1"><rect class="cls-2" x="234.6" y="142.99" width="5.79" height="3.58"></rect><rect class="cls-2" x="232.58" y="140.79" width="0.74" height="24.82" transform="translate(111.92 -97.97) rotate(30.94)"></rect><path class="cls-3" d="M244.9,145.57a27.2,27.2,0,0,0-27.11-25h-1.2l2,25Z"></path><path class="cls-4" d="M158.16,57.89c1.51-5,7.71-17.93,18.47-22.41,10.58-4.4,13.9-17.32,13.9-17.32s-12.29,9.76-20.42,11.08-19.48,9.55-22.56,14a156.75,156.75,0,0,0-9.85,17.65C137.14,62.5,158.16,57.89,158.16,57.89Z"></path><rect class="cls-5" x="15.04" y="146.12" width="4.17" height="2.45"></rect><polygon class="cls-5" points="15.35 144.77 14.73 144.77 26.87 164.26 27.48 164.26 15.35 144.77"></polygon><path class="cls-6" d="M235.77,145.57c-.72-14.13-8.07-25-16.9-25h-.75l1.26,25Z"></path><rect class="cls-7" x="15.47" y="117.56" width="24.82" height="1.1"></rect><rect class="cls-7" x="15.1" y="77.55" width="20.77" height="1.1"></rect><polygon class="cls-8" points="97.55 40.23 43.72 40.23 42.48 61.05 104.77 61.05 97.55 40.23"></polygon><polygon class="cls-9" points="97.55 40.23 96.54 40.23 96.54 51.81 45.8 51.81 45.8 40.23 43.72 40.23 42.48 61.05 104.77 61.05 97.55 40.23"></polygon><polygon class="cls-7" points="59.96 42.44 48.38 42.44 47.46 58.24 59.04 58.24 59.96 42.44"></polygon><polygon class="cls-10" points="59.02 43.17 49.52 43.17 48.76 57.56 58.27 57.56 59.02 43.17"></polygon><polygon class="cls-2" points="66.21 42.8 64 42.8 63.08 50.34 65.29 50.34 66.21 42.8"></polygon><polygon class="cls-2" points="69.52 42.8 67.31 42.8 66.39 50.34 68.6 50.34 69.52 42.8"></polygon><polygon class="cls-2" points="72.83 42.8 70.62 42.8 69.7 50.34 71.91 50.34 72.83 42.8"></polygon><polygon class="cls-2" points="76.14 42.8 73.93 42.8 73.01 50.34 75.22 50.34 76.14 42.8"></polygon><polygon class="cls-2" points="79.44 42.8 77.24 42.8 76.32 50.34 78.53 50.34 79.44 42.8"></polygon><polygon class="cls-11" points="158 85.82 133.92 85.82 133.92 112.17 161.44 112.17 158 85.82"></polygon><polygon class="cls-9" points="146.18 102.8 142.38 85.82 133.92 85.82 133.92 112.17 161.44 112.17 160.22 102.8 146.18 102.8"></polygon><polygon class="cls-12" points="210.03 96.74 208.8 96.74 210.22 108.12 211.47 108.12 210.03 96.74"></polygon><rect class="cls-12" x="174.61" y="96.74" width="1.23" height="12.98"></rect><polygon class="cls-11" points="223.35 108.56 136.62 108.63 136.62 190.97 233.25 190.97 223.35 108.56"></polygon><polygon class="cls-9" points="147.74 118.67 224.35 116.84 223.35 108.56 136.62 108.63 136.62 190.97 151.55 190.97 147.74 118.67"></polygon><g class="cls-13"><polygon class="cls-14" points="154.54 180.75 145.35 180.75 145.87 186.07 155.06 186.07 154.54 180.75"></polygon><polygon class="cls-14" points="163.7 169.06 154.51 169.06 155.03 174.38 164.22 174.38 163.7 169.06"></polygon><polygon class="cls-14" points="217.66 153.54 208.47 153.54 208.99 158.87 218.18 158.87 217.66 153.54"></polygon><polygon class="cls-14" points="228.11 178.91 218.92 178.91 219.44 184.23 228.63 184.23 228.11 178.91"></polygon><polygon class="cls-14" points="214.66 170.52 205.47 170.52 205.98 175.85 215.18 175.85 214.66 170.52"></polygon><polygon class="cls-14" points="193.36 114.34 184.17 114.34 184.69 119.67 193.88 119.67 193.36 114.34"></polygon><polygon class="cls-14" points="153.23 144.78 144.04 144.78 144.56 150.11 153.75 150.11 153.23 144.78"></polygon><polygon class="cls-14" points="214.93 135.15 205.73 135.15 206.25 140.47 215.44 140.47 214.93 135.15"></polygon><polygon class="cls-14" points="153.6 117.13 144.41 117.13 144.93 122.46 154.12 122.46 153.6 117.13"></polygon><polygon class="cls-14" points="216.07 118.88 206.88 118.88 207.4 124.21 216.59 124.21 216.07 118.88"></polygon><polygon class="cls-14" points="178.33 125.39 169.14 125.39 169.66 130.71 178.85 130.71 178.33 125.39"></polygon></g><polygon class="cls-15" points="233.2 187.63 140.73 187.63 140.75 190.97 233.68 190.97 233.2 187.63"></polygon><polygon class="cls-16" points="151.2 187.63 140.73 187.63 140.75 190.97 151.2 190.97 151.2 187.63"></polygon><polygon class="cls-15" points="226.13 105.32 138.2 105.39 138.21 113.52 226.81 113.45 226.13 105.32"></polygon><polygon class="cls-16" points="149.07 111.49 149.06 105.38 138.2 105.39 138.21 113.52 226.81 113.45 226.64 111.43 149.07 111.49"></polygon><polygon class="cls-17" points="138.41 58.64 32.46 58.64 23.8 190.97 142.08 190.97 138.41 58.64"></polygon><polygon class="cls-18" points="123.92 58.64 78.61 58.64 39.91 190.97 99.6 190.97 123.92 58.64"></polygon><rect class="cls-19" x="99.3" y="175.35" width="8.82" height="4.78"></rect><rect class="cls-19" x="28.15" y="171.67" width="8.82" height="4.78"></rect><rect class="cls-19" x="43.04" y="171.3" width="8.82" height="4.78"></rect><rect class="cls-19" x="28.89" y="152" width="8.82" height="4.78"></rect><rect class="cls-19" x="38.26" y="114.68" width="8.82" height="4.78"></rect><rect class="cls-19" x="32.57" y="96.48" width="8.82" height="4.78"></rect><rect class="cls-19" x="34.96" y="73.14" width="8.82" height="4.78"></rect><rect class="cls-19" x="54.26" y="120.01" width="8.82" height="4.78"></rect><rect class="cls-19" x="70.62" y="138.4" width="8.82" height="4.78"></rect><rect class="cls-19" x="125.95" y="131.04" width="8.82" height="4.78"></rect><rect class="cls-19" x="129.81" y="175.9" width="8.82" height="4.78"></rect><rect class="cls-19" x="97.09" y="158.62" width="8.82" height="4.78"></rect><rect class="cls-19" x="129.81" y="151.08" width="8.82" height="4.78"></rect><rect class="cls-19" x="119.7" y="114.5" width="8.82" height="4.78"></rect><rect class="cls-19" x="58.3" y="174.43" width="8.82" height="4.78"></rect><rect class="cls-19" x="106.28" y="136.74" width="8.82" height="4.78"></rect><rect class="cls-19" x="67.68" y="154.02" width="8.82" height="4.78"></rect><rect class="cls-19" x="89.74" y="130.49" width="8.82" height="4.78"></rect><rect class="cls-19" x="69.33" y="114.31" width="8.82" height="4.78"></rect><rect class="cls-19" x="67.49" y="91.89" width="8.82" height="4.78"></rect><rect class="cls-19" x="61.98" y="66.33" width="8.82" height="4.78"></rect><rect class="cls-19" x="75.95" y="73.69" width="8.82" height="4.78"></rect><rect class="cls-19" x="96.91" y="66.7" width="8.82" height="4.78"></rect><rect class="cls-19" x="91.76" y="118.54" width="8.82" height="4.78"></rect><polygon class="cls-2" points="140.16 121.67 28.29 122.31 27.69 133.53 140.63 133.62 140.16 121.67"></polygon><polygon class="cls-2" points="137.15 57.94 32.55 58.59 31.98 69.8 137.6 69.89 137.15 57.94"></polygon><polygon class="cls-2" points="69.7 133.25 26.71 145.9 26.35 153.63 69.82 153.72 69.7 133.25"></polygon><path class="cls-15" d="M140,54.51H29.77l-.48,7.15A3.23,3.23,0,0,0,32.5,65.1H136.73A3.28,3.28,0,0,0,140,61.82Z"></path><path class="cls-16" d="M138,60.87H33.79a3.22,3.22,0,0,1-3.22-3.44l.2-2.92h-1l-.48,7.15A3.23,3.23,0,0,0,32.5,65.1H136.73A3.28,3.28,0,0,0,140,61.82V60.17A3.28,3.28,0,0,1,138,60.87Z"></path><path class="cls-15" d="M142.74,125.47a2.51,2.51,0,0,0-2.51-2.51H27.31a1.61,1.61,0,0,0-1.61,1.52l-.25,5a1.13,1.13,0,0,0,1.12,1.18H140.32a2.42,2.42,0,0,0,2.42-2.42Z"></path><path class="cls-16" d="M142,123.64v1.86a2.4,2.4,0,0,1-2.39,2.42H27.47a1.08,1.08,0,0,1-.79-.35,1.15,1.15,0,0,1-.31-.83l.18-3.59a1.61,1.61,0,0,0-.85,1.33l-.25,5a1.13,1.13,0,0,0,1.12,1.18H140.32a2.42,2.42,0,0,0,2.42-2.42v-2.79A2.5,2.5,0,0,0,142,123.64Z"></path><polygon class="cls-16" points="142.74 182.46 21.16 182.46 20.59 190.97 142.74 190.97 142.74 182.46"></polygon><polygon class="cls-15" points="139.01 182.46 29.62 182.46 29.11 190.97 139.01 190.97 139.01 182.46"></polygon><polygon class="cls-20" points="217.92 70.8 163.64 70.8 166 101.09 221.85 101.09 217.92 70.8"></polygon><polygon class="cls-7" points="27.3 57.39 5.69 57.39 0 126.86 22.45 126.86 27.3 57.39"></polygon><polygon class="cls-10" points="99.85 140.42 72.27 140.42 69.88 190.97 100.4 190.97 99.85 140.42"></polygon><polygon class="cls-7" points="135.88 140.42 103.34 140.42 104.54 173.88 137.08 173.88 135.88 140.42"></polygon><polygon class="cls-21" points="135.18 141.17 104.1 141.17 105.24 173.13 136.32 173.13 135.18 141.17"></polygon><polygon class="cls-22" points="134.66 142.99 104.7 142.99 105.78 172.55 135.74 172.55 134.66 142.99"></polygon><polygon class="cls-7" points="31.36 140.42 63.89 140.42 61.49 173.88 28.95 173.88 31.36 140.42"></polygon><polygon class="cls-21" points="31.98 141.59 62.97 141.59 60.67 173.44 29.7 173.44 31.98 141.59"></polygon><polygon class="cls-22" points="31.46 153.78 30.07 172.96 60.35 172.96 61.74 153.78 31.46 153.78"></polygon><polygon class="cls-23" points="32.26 172.61 42.44 172.61 52.86 154.13 42.68 154.13 32.26 172.61"></polygon><polygon class="cls-10" points="37.48 75.22 70.02 75.22 66.88 116.77 34.34 116.77 37.48 75.22"></polygon><polygon class="cls-21" points="38.35 76.14 68.97 76.14 66.01 115.85 35.4 115.85 38.35 76.14"></polygon><polygon class="cls-22" points="39.04 76.81 68.14 76.81 65.33 115.17 36.23 115.17 39.04 76.81"></polygon><polygon class="cls-10" points="51.32 116.34 48.28 108.89 55.13 110.94 54.44 107.82 44.42 106.09 49.43 106.41 47.73 98.23 50.83 102.86 54.01 93.72 52.24 101.63 56.65 103.01 57.66 96.85 59.13 97.4 57.02 95.38 60.57 97.1 61.23 93.42 61.52 96.76 64.09 96.58 64.64 92.71 68.32 92.35 66.67 116.43 51.32 116.34"></polygon><polygon class="cls-10" points="134.41 75.28 106.47 75.28 108.43 116.77 136.37 116.77 134.41 75.28"></polygon><polygon class="cls-22" points="133.43 76.17 133.12 99.7 127.7 112.57 119.15 109.9 109.41 115.88 135.24 115.88 133.43 76.17"></polygon><polygon class="cls-7" points="73.76 75.22 102.06 75.22 103.16 116.77 70.62 116.77 73.76 75.22"></polygon><polygon class="cls-10" points="75.34 76.75 100.8 75.89 101.81 116.09 71.97 116.09 75.34 76.75"></polygon><polygon class="cls-21" points="76.23 77.82 74.76 97.59 80.73 90.51 81.47 91.98 82.66 88.03 80.82 83.8 83.12 82.79 84.68 85.91 86.34 80.49 89 82.24 88.82 76.9 76.23 77.82"></polygon><rect class="cls-5" x="51.07" y="146.12" width="4.17" height="2.45"></rect><polygon class="cls-5" points="64.64 162.43 62.99 162.43 62.76 165.6 64.42 165.6 64.64 162.43"></polygon><polygon class="cls-5" points="51.38 144.77 50.77 144.77 62.9 164.26 63.51 164.26 51.38 144.77"></polygon><path class="cls-3" d="M69.64,132.64H23.05c-6.87,0-13.28,6.09-15.91,15.13H67.43Z"></path><polygon class="cls-7" points="210.64 137.29 162.48 137.29 166.52 190.97 214.69 190.97 210.64 137.29"></polygon><polygon class="cls-24" points="25.73 58.24 6.04 58.24 0.86 125.25 21.32 125.25 25.73 58.24"></polygon><path class="cls-25" d="M132,89.21c10.6-5.82,22.88-13.6,28.81-23.94,7.41-12.95,17.26-13.2,19.84-12.86,0,0-10.63-5.73-25.89,6.63C145.81,66.31,132,89.21,132,89.21Z"></path><path class="cls-26" d="M146.94,33.83c-7.35-5.89,6.25-16.92,6.25-16.92a40.64,40.64,0,0,0-11.43,4.69C129,29.35,117.9,58,112.38,56.5c-2.68-.72-1.65-6.13-1-7.48-10.38,8.15-9.83,26-16.44,30-12.1,7.39-18.39,23.5-14.34,37.23h21.14c10.66-30,49.31-12.07,62.5-79C169.46,10.75,189.59,0,189.59,0,156,7.35,154.3,39.71,146.94,33.83Z"></path><path class="cls-25" d="M85,88.88c-5.18,8-7.1,18.22-4.39,27.4h22.69c10.22-28.71,44.56-13.5,59.15-71C149.49,93.05,93.25,99.61,85,88.88Z"></path><path class="cls-25" d="M102.66,116.6c6.66-1.34,11-4.62,13-7.34s3.92-8.11,9.5-7.54c0,0-5.76-2.76-15.52,3C99.58,110.65,102.66,116.6,102.66,116.6Z"></path><path class="cls-26" d="M78.23,81.66C81.16,76.29,86.75,73.85,89,68.9s-.25-13.34-.25-13.34-.66,9.86-5.44,13.6C79,72.47,78.23,81.66,78.23,81.66Z"></path><path class="cls-26" d="M174.7,47.31c3.6-3.9,6.2-4,9.83-6.59s5-9,5-9A29,29,0,0,1,180,38.24C175.11,40,174.7,47.31,174.7,47.31Z"></path><path class="cls-26" d="M130,98c5.24-3.16,11.3-2.46,15.7-5.62s6.5-11.65,6.5-11.65-5.53,8.19-11.55,9C135.36,90.43,130,98,130,98Z"></path><polygon class="cls-27" points="98.61 141.34 73.36 141.34 71.17 190.85 99.11 190.85 98.61 141.34"></polygon><path class="cls-6" d="M37,132.64h-14c-6.87,0-13.28,6.09-15.91,15.13h14C23.74,138.73,30.15,132.64,37,132.64Z"></path><path class="cls-6" d="M62.94,132.64H49c-6.87,0-13.28,6.09-15.91,15.13H47C49.66,138.73,56.07,132.64,62.94,132.64Z"></path><polygon class="cls-23" points="106.7 169.84 106.75 171.36 118.34 171.36 132.94 143.84 132.93 143.42 120.71 143.42 106.7 169.84"></polygon><polygon class="cls-7" points="114.68 140.88 113.39 140.88 115.08 173.6 116.36 173.6 114.68 140.88"></polygon><polygon class="cls-7" points="127.27 140.88 125.98 140.88 127.67 173.6 128.96 173.6 127.27 140.88"></polygon><polygon class="cls-7" points="136.14 156.56 136.22 155.27 104.26 155.06 104.19 156.34 136.14 156.56"></polygon><polygon class="cls-22" points="50.63 111.24 55.13 115.92 51.64 115.92 50.63 111.24"></polygon><polygon class="cls-10" points="47.64 108.66 48.01 111.05 44.93 107.05 47.64 108.66"></polygon><polygon class="cls-10" points="51.87 75.8 49.39 116.34 50.4 116.34 53.06 75.53 51.87 75.8"></polygon><polygon class="cls-10" points="68.5 85.25 36.82 84.41 36.82 85.42 68.72 86.43 68.5 85.25"></polygon><polygon class="cls-10" points="67.28 106.82 35.11 105.98 35.11 106.99 67.49 108 67.28 106.82"></polygon><path class="cls-28" d="M98.17,142.15H73.75L71.63,190h27Zm-2.24,23.47H74.71l.71-21.93H96.64Zm-1.07,22.54H74.65l.67-20.89H95.54Z"></path><path class="cls-17" d="M93,166.8a2.07,2.07,0,1,0,2.07-2.07A2.07,2.07,0,0,0,93,166.8Z"></path><path class="cls-28" d="M93.79,166.8a1.28,1.28,0,1,0,1.28-1.28A1.28,1.28,0,0,0,93.79,166.8Z"></path><rect class="cls-2" x="125.22" y="122.4" width="1.01" height="9.93"></rect><rect class="cls-2" x="109.09" y="122.4" width="1.01" height="9.93"></rect><rect class="cls-2" x="92.96" y="122.4" width="1.01" height="9.93"></rect><rect class="cls-2" x="76.82" y="122.4" width="1.01" height="9.93"></rect><rect class="cls-2" x="60.69" y="122.4" width="1.01" height="9.93"></rect><rect class="cls-2" x="44.56" y="122.4" width="1.01" height="9.93"></rect><rect class="cls-2" x="30.82" y="122.4" width="1.01" height="9.93"></rect><polygon class="cls-29" points="3.3 100.99 21.74 110.06 23.74 79.7 5.64 70.8 3.3 100.99"></polygon><path class="cls-30" d="M69.19,132.64c-5,0-9.8,3.27-13,8.56H10a27.21,27.21,0,0,0-2.87,6.57H67.43l2.21-15.13Z"></path><path class="cls-25" d="M99.65,85.85C87.28,90.55,77.78,104.43,80,116.28H95.62S88.7,103.34,104.46,92c9.78-7.06,14.46-21.24,14.46-21.24C117.93,72.68,112,81.15,99.65,85.85Z"></path><path class="cls-26" d="M84,80.77c-9.11,5.48-14.1,21.68-10,35.51H90.92s-8.7-20.74-1.83-28.36,7.57-24.79,7.57-24.79C96.24,65.4,93.1,75.29,84,80.77Z"></path><path class="cls-25" d="M93.32,82.42c-.84.47-1.73.93-2.65,1.36-10.29,4.79-17.14,16.51-17.48,28.9a35.07,35.07,0,0,0,.9,3.6H92.15s-9.31-21.39-2-29.25A20.32,20.32,0,0,0,93.32,82.42Z"></path><path class="cls-25" d="M142.24,66.84c4.08-3.26,10.06-6.54,9.28-16.46,0,0-3.72,6.32-8,8.79C141.66,60.28,142.24,66.84,142.24,66.84Z"></path><path class="cls-31" d="M134.26,49.49c1.86-3.64,3.36-8.72,11.63-9.77,0,0-4.43,3.87-5.61,7.49C139.75,48.84,134.26,49.49,134.26,49.49Z"></path><path class="cls-26" d="M89.16,112.66c2.77-5.41,5-13,17.33-14.54,0,0-6.61,5.76-8.37,11.16C97.34,111.7,89.16,112.66,89.16,112.66Z"></path><path class="cls-26" d="M85.46,95.16c1.71-3.36,3.1-8,10.74-9,0,0-4.1,3.57-5.19,6.92C90.53,94.56,85.46,95.16,85.46,95.16Z"></path><path class="cls-26" d="M116.66,42c1-2.18,1.7-5.19,6.5-6.05,0,0-2.48,2.39-3.06,4.54C119.84,41.42,116.66,42,116.66,42Z"></path><path class="cls-31" d="M119.67,84c4.17.08,7.63-1.21,9.86-5.61,2.06-4,6.95-7,6.95-7a11.6,11.6,0,0,0-9.51,5A48.68,48.68,0,0,1,119.67,84Z"></path><polygon class="cls-32" points="210.01 138.11 163.68 138.11 167.57 190.97 213.91 190.97 210.01 138.11"></polygon><polygon class="cls-33" points="166.2 147.89 210.27 157.86 208.85 139.53 165.43 139.53 166.2 147.89"></polygon><polygon class="cls-33" points="169.09 181.48 187.38 189.75 212.11 189.75 210.85 172.82 167.98 166.55 169.09 181.48"></polygon><path class="cls-34" d="M211.83,187.85c0,.15-9.31.27-20.81.27s-20.84-.12-20.85-.27,9.3-.28,20.81-.28S211.81,187.7,211.83,187.85Z"></path><path class="cls-34" d="M211.38,183.53c0,.15-9.3.27-20.81.27s-20.84-.12-20.85-.27,9.3-.28,20.81-.28S211.37,183.38,211.38,183.53Z"></path><path class="cls-34" d="M210.93,179.21c0,.15-9.3.27-20.8.27s-20.84-.12-20.86-.27,9.31-.28,20.81-.28S210.92,179.06,210.93,179.21Z"></path><ellipse class="cls-34" cx="189.65" cy="174.89" rx="20.83" ry="0.28"></ellipse><path class="cls-34" d="M210,170.57c0,.15-9.3.27-20.8.27s-20.84-.12-20.85-.27,9.3-.28,20.8-.28S210,170.42,210,170.57Z"></path><path class="cls-34" d="M209.59,166.25c0,.15-9.31.27-20.81.27s-20.84-.12-20.85-.27,9.3-.28,20.81-.28S209.57,166.1,209.59,166.25Z"></path><ellipse class="cls-34" cx="188.31" cy="161.93" rx="20.83" ry="0.28"></ellipse><path class="cls-34" d="M208.69,157.61c0,.15-9.3.27-20.8.27s-20.84-.12-20.86-.27,9.31-.28,20.81-.28S208.68,157.46,208.69,157.61Z"></path><path class="cls-34" d="M208.24,153.29c0,.15-9.3.27-20.8.27s-20.84-.12-20.85-.27,9.3-.28,20.8-.28S208.23,153.14,208.24,153.29Z"></path><path class="cls-34" d="M207.8,149c0,.15-9.31.27-20.81.27s-20.84-.12-20.85-.27,9.3-.28,20.8-.28S207.78,148.82,207.8,149Z"></path><path class="cls-34" d="M207.35,144.65c0,.15-9.3.27-20.81.27s-20.84-.12-20.85-.27,9.3-.28,20.81-.28S207.33,144.5,207.35,144.65Z"></path><path class="cls-34" d="M206.9,140.33c0,.15-9.3.27-20.81.27s-20.83-.12-20.85-.27,9.31-.28,20.81-.28S206.89,140.18,206.9,140.33Z"></path><path class="cls-12" d="M223.11,102.19H165L162.45,69.7h56.44ZM167,100H220.6L217,71.9H164.83Z"></path><polygon class="cls-20" points="217.92 70.8 163.64 70.8 166 101.09 221.85 101.09 217.92 70.8"></polygon><path class="cls-35" d="M166,101.09h55.85L221,94.68l-5-2.61.37,5.33-8.18-5.79,2.39,5.06L202,91.34l-.83,4.78-10.29-9.56-3.68,8.82-13.51-6.25.92,6.07s-5.23-4-9.62-7.5Z"></path><path class="cls-36" d="M189.51,93.29c6-7.86,10-16.22,11.56-23.59H162.45L165,102.19h16.44A71.35,71.35,0,0,0,189.51,93.29Z"></path><path class="cls-37" d="M170.31,74.83l1.87,6.4.13.91H170l-.33-1.47h-1l.05,1.47h-2.25l-.12-.91.15-6.4Zm-1,4-.5-2.17h-.25l.09,2.17Z"></path><path class="cls-37" d="M172.92,82.14l-1-7.31h4.52a1,1,0,0,1,1,.91l.74,5.49a.75.75,0,0,1-.78.91Zm2-1.83h.91l-.49-3.64h-.91Z"></path><path class="cls-37" d="M178.3,77.27l-.2-1.53a.75.75,0,0,1,.79-.91h3.92l.12.9-.22.94h-2.22l0,.33,2.14,1.33a1.47,1.47,0,0,1,.78,1.24l.22,1.66a.75.75,0,0,1-.78.91H179l-.25-1.83h2.57l-.06-.48-2.14-1.31A1.5,1.5,0,0,1,178.3,77.27Z"></path><path class="cls-37" d="M191.43,79.86l.31,2.28h-2.27l-1-7.31H193a1,1,0,0,1,1,.91l.43,3.2a.75.75,0,0,1-.79.92ZM191.19,78h.9l-.19-1.37H191Z"></path><path class="cls-37" d="M194.64,74.83h2.25l.74,5.48h2.27l.25,1.83h-4.53Z"></path><path class="cls-37" d="M204.25,74.83l1.87,6.4.12.91H204l-.33-1.47h-1l.05,1.47h-2.25l-.13-.91.16-6.4Zm-1,4-.5-2.17h-.25l.09,2.17Z"></path><path class="cls-37" d="M210.72,74.83l.12.91-.23.93h-2.22l.49,3.64h2.57l.25,1.83h-3.93a1,1,0,0,1-1-.91L206,75.74a.75.75,0,0,1,.79-.91Z"></path><path class="cls-37" d="M212.32,82.14l-1-7.31h4.83l.12.91-.23.93h-2.23l.11.81h2.23l.24,1.83h-2.22l.13,1h2.59l.24,1.83Z"></path><path class="cls-38" d="M3.89,122.73A1,1,0,0,0,3,121.52a1.1,1.1,0,0,0-1.1,1,1,1,0,0,0,.85,1.22A1.1,1.1,0,0,0,3.89,122.73Z"></path><path class="cls-38" d="M7.8,122.73A1,1,0,0,0,7,121.52a1.1,1.1,0,0,0-1.1,1,1.05,1.05,0,0,0,.86,1.22A1.1,1.1,0,0,0,7.8,122.73Z"></path><path class="cls-38" d="M11.72,122.73a1,1,0,0,0-.86-1.21,1.09,1.09,0,0,0-1.09,1,1,1,0,0,0,.85,1.22A1.11,1.11,0,0,0,11.72,122.73Z"></path><path class="cls-38" d="M15.63,122.73a1,1,0,0,0-.85-1.21,1.1,1.1,0,0,0-1.1,1,1,1,0,0,0,.85,1.22A1.11,1.11,0,0,0,15.63,122.73Z"></path><path class="cls-38" d="M12.77,60.41a1,1,0,0,0-.86-1.21,1.09,1.09,0,0,0-1.09,1,1,1,0,0,0,.85,1.22A1.11,1.11,0,0,0,12.77,60.41Z"></path><path class="cls-38" d="M16.68,60.41a1,1,0,0,0-.85-1.21,1.1,1.1,0,0,0-1.1,1,1,1,0,0,0,.85,1.22A1.11,1.11,0,0,0,16.68,60.41Z"></path><path class="cls-38" d="M20.59,60.41a1,1,0,0,0-.85-1.21,1.1,1.1,0,0,0-1.1,1,1,1,0,0,0,.86,1.22A1.1,1.1,0,0,0,20.59,60.41Z"></path><path class="cls-38" d="M19.54,122.73a1,1,0,0,0-.85-1.21,1.1,1.1,0,0,0-1.1,1,1,1,0,0,0,.85,1.22A1.1,1.1,0,0,0,19.54,122.73Z"></path><path class="cls-38" d="M20,118.59a1.09,1.09,0,0,0-.89-1.23,1.16,1.16,0,0,0-.19,2.29A1.08,1.08,0,0,0,20,118.59Z"></path><path class="cls-38" d="M20.33,114.41a1,1,0,1,0-1.95-.16,1.08,1.08,0,0,0,.88,1.23A1.07,1.07,0,0,0,20.33,114.41Z"></path><path class="cls-38" d="M20.69,110.24a1,1,0,1,0-2-.16,1,1,0,1,0,2,.16Z"></path><path class="cls-38" d="M21.05,106.07A1,1,0,1,0,20,107.13,1.07,1.07,0,0,0,21.05,106.07Z"></path><path class="cls-38" d="M21.41,101.89a1.08,1.08,0,0,0-.88-1.23,1.17,1.17,0,0,0-.19,2.3A1.08,1.08,0,0,0,21.41,101.89Z"></path><path class="cls-38" d="M21.77,97.72a1.09,1.09,0,0,0-.89-1.23,1.16,1.16,0,1,0,.89,1.23Z"></path><ellipse class="cls-38" cx="21.15" cy="93.46" rx="1.15" ry="0.98" transform="translate(-73.66 107.36) rotate(-85.59)"></ellipse><path class="cls-38" d="M22.49,89.37a1.09,1.09,0,0,0-.89-1.23,1.16,1.16,0,1,0,.89,1.23Z"></path><path class="cls-38" d="M22.84,85.19A1,1,0,1,0,20.89,85a1,1,0,1,0,1.95.16Z"></path><path class="cls-38" d="M23.2,81a1,1,0,1,0-1.95-.16A1,1,0,1,0,23.2,81Z"></path><path class="cls-38" d="M23.56,76.85a1,1,0,1,0-1.07,1.06A1.07,1.07,0,0,0,23.56,76.85Z"></path><path class="cls-38" d="M23.92,72.67A1.07,1.07,0,0,0,23,71.45a1.16,1.16,0,1,0,.88,1.22Z"></path><path class="cls-38" d="M24.28,68.5a1.09,1.09,0,0,0-.89-1.23,1.16,1.16,0,1,0,.89,1.23Z"></path><path class="cls-38" d="M24.64,64.32a1,1,0,1,0-1.07,1.07A1.07,1.07,0,0,0,24.64,64.32Z"></path><path class="cls-38" d="M25,60.15a1.09,1.09,0,0,0-.89-1.23A1.16,1.16,0,1,0,25,60.15Z"></path><path class="cls-38" d="M4.34,118.6a1.09,1.09,0,0,0-.9-1.22,1.06,1.06,0,0,0-1.06,1.05,1.09,1.09,0,0,0,.9,1.22A1.06,1.06,0,0,0,4.34,118.6Z"></path><path class="cls-38" d="M4.65,114.45a1.07,1.07,0,0,0-.89-1.21,1,1,0,0,0-1.06,1.05,1.08,1.08,0,0,0,.89,1.22A1.06,1.06,0,0,0,4.65,114.45Z"></path><path class="cls-38" d="M5,110.31a1.09,1.09,0,0,0-.9-1.22A1.06,1.06,0,0,0,3,110.15a1.09,1.09,0,0,0,.9,1.22A1.06,1.06,0,0,0,5,110.31Z"></path><path class="cls-38" d="M5.28,106.17A1.07,1.07,0,0,0,4.39,105a1.06,1.06,0,0,0-1.07,1,1.09,1.09,0,0,0,.9,1.22A1,1,0,0,0,5.28,106.17Z"></path><path class="cls-38" d="M5.6,102a1.08,1.08,0,0,0-.9-1.21,1,1,0,0,0-1.06,1,1.09,1.09,0,0,0,.9,1.22A1.06,1.06,0,0,0,5.6,102Z"></path><path class="cls-38" d="M5.91,97.88A1.08,1.08,0,0,0,5,96.66,1.06,1.06,0,0,0,4,97.72a1.09,1.09,0,0,0,.9,1.22A1.06,1.06,0,0,0,5.91,97.88Z"></path><path class="cls-38" d="M6.23,93.74a1.09,1.09,0,0,0-.9-1.22,1.06,1.06,0,0,0-1.06,1.06,1.07,1.07,0,0,0,.9,1.21A1,1,0,0,0,6.23,93.74Z"></path><path class="cls-38" d="M6.54,89.59a1.08,1.08,0,0,0-.9-1.21,1,1,0,0,0-1.06,1.05,1.09,1.09,0,0,0,.9,1.22A1.06,1.06,0,0,0,6.54,89.59Z"></path><path class="cls-38" d="M6.86,85.45A1.09,1.09,0,0,0,6,84.23,1.06,1.06,0,0,0,4.9,85.29a1.08,1.08,0,0,0,.89,1.22A1.07,1.07,0,0,0,6.86,85.45Z"></path><path class="cls-38" d="M7.17,81.31a1.09,1.09,0,0,0-.9-1.22,1.06,1.06,0,0,0-1.06,1.06,1.08,1.08,0,0,0,.9,1.21A1,1,0,0,0,7.17,81.31Z"></path><path class="cls-38" d="M7.48,77.17A1.07,1.07,0,0,0,6.59,76a1,1,0,0,0-1.06,1,1.07,1.07,0,0,0,.89,1.22A1,1,0,0,0,7.48,77.17Z"></path><path class="cls-38" d="M7.8,73a1.09,1.09,0,0,0-.9-1.22,1.06,1.06,0,0,0-1.06,1.06,1.09,1.09,0,0,0,.9,1.22A1.06,1.06,0,0,0,7.8,73Z"></path><path class="cls-38" d="M8.11,68.88a1.08,1.08,0,0,0-.89-1.22,1.06,1.06,0,0,0-1.06,1.06,1.07,1.07,0,0,0,.89,1.21A1,1,0,0,0,8.11,68.88Z"></path><path class="cls-38" d="M8.43,64.74a1.09,1.09,0,0,0-.9-1.22,1.06,1.06,0,0,0-1.06,1,1.09,1.09,0,0,0,.9,1.22A1.06,1.06,0,0,0,8.43,64.74Z"></path><path class="cls-38" d="M8.74,60.59a1.07,1.07,0,0,0-.89-1.21,1.05,1.05,0,0,0-1.07,1,1.09,1.09,0,0,0,.9,1.22A1.06,1.06,0,0,0,8.74,60.59Z"></path></g></g></g></svg>