<svg xmlns="http://www.w3.org/2000/svg" xmlns:xlink="http://www.w3.org/1999/xlink" viewBox="0 0 1087.24 843.65"><defs><style>.cls-1{isolation:isolate;}.cls-2{fill:#ffd7d7;}.cls-3{fill:#f7b2b2;}.cls-4{fill:#c6a028;}.cls-5{fill:url(#linear-gradient);}.cls-6{fill:url(#linear-gradient-2);}.cls-7{fill:url(#linear-gradient-3);}.cls-8{fill:url(#linear-gradient-4);}.cls-9{fill:#d66969;}.cls-10{fill:#a32929;}.cls-11{fill:url(#linear-gradient-5);}.cls-12{fill:#d65129;}.cls-13{fill:#c43d1e;}.cls-14{fill:#c67f44;}.cls-15{fill:#e1fcff;}.cls-16{fill:#f8dfa4;}.cls-17{fill:url(#linear-gradient-6);}.cls-18{fill:#ba472d;}.cls-19{fill:#fcbe7e;}.cls-20{fill:#8e000b;}.cls-21{fill:url(#linear-gradient-7);}.cls-22{fill:url(#linear-gradient-8);}.cls-23{fill:url(#linear-gradient-9);}.cls-24{fill:#b54b33;}.cls-25{fill:#872517;}.cls-26{fill:#ba1522;}.cls-27{fill:#870010;}.cls-28{fill:#e89f5d;}.cls-29{fill:#280005;}.cls-30{fill:#4c000d;}.cls-31{fill:#dbc095;}.cls-32{fill:#fff4de;}.cls-33{fill:#d6fcfc;}.cls-34{fill:#b8f1f4;}.cls-35{fill:#e8d6b5;}.cls-36{fill:url(#linear-gradient-10);}.cls-37{fill:#fbb03b;}.cls-38{fill:url(#linear-gradient-11);}.cls-39{fill:#fff;}.cls-40{fill:url(#linear-gradient-12);}.cls-41{fill:url(#linear-gradient-13);}.cls-42{fill:url(#linear-gradient-14);}.cls-43{fill:url(#linear-gradient-15);}.cls-44{fill:#92cfe0;}.cls-45{fill:url(#linear-gradient-16);}.cls-46{fill:url(#linear-gradient-17);}.cls-47{fill:#939393;}.cls-48{fill:#a0000c;}.cls-49{fill:#736357;}.cls-50{fill:#e08b19;}.cls-51{fill:#4d4d4d;}.cls-52{fill:url(#linear-gradient-18);}.cls-53{fill:url(#linear-gradient-19);}.cls-54{fill:none;stroke:#a0000c;stroke-miterlimit:10;stroke-width:2px;}.cls-55{fill:url(#linear-gradient-20);}.cls-56{fill:url(#linear-gradient-21);}.cls-57{fill:url(#linear-gradient-22);}.cls-58{fill:url(#linear-gradient-23);}.cls-59{fill:url(#linear-gradient-24);}.cls-60{fill:url(#linear-gradient-25);}.cls-61{fill:url(#linear-gradient-26);}.cls-62{fill:url(#linear-gradient-27);}.cls-63{fill:url(#linear-gradient-28);}.cls-64{fill:url(#linear-gradient-29);}.cls-65{fill:url(#linear-gradient-30);}.cls-66{fill:url(#linear-gradient-31);}.cls-67{fill:url(#linear-gradient-32);}.cls-68{fill:#8c0011;}.cls-69{fill:#7f000f;}.cls-70{fill:url(#linear-gradient-33);}.cls-71{fill:url(#linear-gradient-34);}.cls-72{fill:url(#linear-gradient-35);}.cls-73{fill:url(#linear-gradient-36);}.cls-74{fill:url(#linear-gradient-37);}.cls-75{fill:url(#linear-gradient-38);}.cls-76{fill:url(#linear-gradient-39);}.cls-77{fill:url(#linear-gradient-40);}.cls-78{fill:url(#linear-gradient-41);}.cls-79{fill:url(#linear-gradient-42);}.cls-80{fill:url(#linear-gradient-43);}.cls-81{fill:url(#linear-gradient-44);}.cls-82{fill:url(#linear-gradient-45);}.cls-83{fill:url(#linear-gradient-46);}.cls-84{fill:url(#linear-gradient-47);}.cls-85{fill:url(#linear-gradient-48);}.cls-86{fill:url(#linear-gradient-49);}.cls-87{fill:url(#linear-gradient-50);}.cls-88{fill:url(#linear-gradient-51);}.cls-89{fill:url(#linear-gradient-52);}.cls-90{fill:url(#linear-gradient-53);}.cls-91{fill:url(#linear-gradient-54);}.cls-92,.cls-93,.cls-94{mix-blend-mode:multiply;}.cls-92{fill:url(#linear-gradient-55);}.cls-93{fill:url(#linear-gradient-56);}.cls-94{fill:url(#linear-gradient-57);}.cls-95{fill:url(#linear-gradient-58);}.cls-96{fill:url(#linear-gradient-59);}.cls-97{fill:url(#linear-gradient-60);}.cls-98{fill:url(#linear-gradient-61);}.cls-99{fill:url(#linear-gradient-62);}.cls-100{fill:url(#linear-gradient-63);}.cls-101{fill:url(#linear-gradient-64);}.cls-102{fill:url(#linear-gradient-65);}.cls-103{fill:url(#linear-gradient-66);}.cls-104{fill:url(#linear-gradient-67);}.cls-105{fill:url(#linear-gradient-68);}.cls-106{fill:#232323;}.cls-107{fill:url(#linear-gradient-69);}.cls-108{fill:url(#linear-gradient-70);}.cls-109{fill:url(#linear-gradient-71);}.cls-110{fill:url(#linear-gradient-72);}.cls-111{fill:url(#linear-gradient-73);}.cls-112{fill:#333;}.cls-113{fill:url(#linear-gradient-74);}.cls-114{fill:url(#linear-gradient-75);}.cls-115{fill:url(#linear-gradient-76);}.cls-116{fill:#f7931e;}.cls-117{fill:url(#linear-gradient-77);}.cls-118{fill:url(#linear-gradient-78);}.cls-119{fill:url(#linear-gradient-79);}.cls-120{fill:url(#linear-gradient-80);}.cls-121{fill:url(#linear-gradient-81);}.cls-122{fill:#db3;}.cls-123{fill:url(#linear-gradient-82);}.cls-124{fill:url(#linear-gradient-83);}.cls-125{fill:url(#linear-gradient-84);}.cls-126{fill:url(#linear-gradient-85);}.cls-127{fill:url(#linear-gradient-86);}.cls-128{fill:url(#linear-gradient-87);}.cls-129{fill:url(#linear-gradient-88);}.cls-130{fill:url(#linear-gradient-89);}.cls-131{fill:url(#linear-gradient-90);}.cls-132{fill:url(#linear-gradient-91);}.cls-133{fill:url(#linear-gradient-92);}.cls-134{fill:url(#linear-gradient-93);}.cls-135{fill:url(#linear-gradient-94);}.cls-136{fill:url(#linear-gradient-95);}.cls-137{fill:url(#linear-gradient-96);}.cls-138{fill:url(#linear-gradient-97);}.cls-139{fill:url(#linear-gradient-98);}.cls-140{fill:url(#linear-gradient-99);}.cls-141{fill:url(#linear-gradient-100);}.cls-142{fill:url(#linear-gradient-101);}.cls-143{fill:url(#linear-gradient-102);}.cls-144{fill:url(#linear-gradient-103);}.cls-145{fill:url(#linear-gradient-104);}.cls-146{fill:url(#linear-gradient-105);}.cls-147{fill:url(#linear-gradient-106);}.cls-148{fill:url(#linear-gradient-107);}.cls-149{fill:url(#linear-gradient-108);}.cls-150{fill:url(#linear-gradient-109);}.cls-151{fill:url(#linear-gradient-110);}.cls-152{fill:gray;}.cls-153{fill:#29abe2;}.cls-154{fill:url(#linear-gradient-111);}.cls-155{fill:url(#linear-gradient-112);}.cls-156{fill:url(#linear-gradient-113);}.cls-157{fill:url(#linear-gradient-114);}.cls-158{fill:url(#linear-gradient-115);}.cls-159{fill:url(#linear-gradient-116);}.cls-160{fill:url(#linear-gradient-117);}.cls-161{fill:url(#linear-gradient-118);}.cls-162{fill:url(#linear-gradient-119);}.cls-163{fill:url(#linear-gradient-120);}.cls-164{fill:url(#linear-gradient-121);}.cls-165{fill:url(#linear-gradient-122);}.cls-166{fill:url(#linear-gradient-123);}.cls-167{fill:url(#linear-gradient-124);}.cls-168{fill:url(#linear-gradient-125);}.cls-169{fill:#999;}.cls-170{fill:#e6e6e6;}.cls-171{fill:#abe9ff;}</style><linearGradient id="linear-gradient" x1="891.43" y1="708.56" x2="891.43" y2="713.91" gradientUnits="userSpaceOnUse"><stop offset="0" stop-color="#f8dfa4"></stop><stop offset="1" stop-color="#db3"></stop></linearGradient><linearGradient id="linear-gradient-2" x1="893.03" y1="715.69" x2="893.03" y2="720.68" xlink:href="#linear-gradient"></linearGradient><linearGradient id="linear-gradient-3" x1="894.46" y1="722.37" x2="894.46" y2="727.68" xlink:href="#linear-gradient"></linearGradient><linearGradient id="linear-gradient-4" x1="895.62" y1="730.48" x2="895.62" y2="736.72" xlink:href="#linear-gradient"></linearGradient><linearGradient id="linear-gradient-5" x1="296.59" y1="222.21" x2="428.75" y2="436.13" gradientUnits="userSpaceOnUse"><stop offset="0" stop-color="#ff8863"></stop><stop offset="1" stop-color="#d01d22"></stop></linearGradient><linearGradient id="linear-gradient-6" x1="444.67" y1="237.92" x2="563.68" y2="430.54" gradientUnits="userSpaceOnUse"><stop offset="0" stop-color="#d1564f"></stop><stop offset="1" stop-color="#9c1d22"></stop></linearGradient><linearGradient id="linear-gradient-7" x1="568.56" y1="214.52" x2="581.35" y2="306.04" gradientUnits="userSpaceOnUse"><stop offset="0" stop-color="#d04f4c"></stop><stop offset="1" stop-color="#a12f1f"></stop></linearGradient><linearGradient id="linear-gradient-8" x1="675.99" y1="264.01" x2="954" y2="547.12" gradientUnits="userSpaceOnUse"><stop offset="0" stop-color="#bf4a51"></stop><stop offset="1" stop-color="#973b27"></stop></linearGradient><linearGradient id="linear-gradient-9" x1="487.43" y1="285.77" x2="617.37" y2="496.08" gradientUnits="userSpaceOnUse"><stop offset="0" stop-color="#e48845"></stop><stop offset="1" stop-color="#d04f4c"></stop></linearGradient><linearGradient id="linear-gradient-10" x1="115.88" y1="546.86" x2="134.45" y2="565.1" gradientUnits="userSpaceOnUse"><stop offset="0" stop-color="#ff6d81"></stop><stop offset="1" stop-color="#ca1b00"></stop></linearGradient><linearGradient id="linear-gradient-11" x1="162.84" y1="461.75" x2="200.66" y2="527.51" xlink:href="#linear-gradient-10"></linearGradient><linearGradient id="linear-gradient-12" x1="311.75" y1="603.29" x2="311.75" y2="616.04" gradientUnits="userSpaceOnUse"><stop offset="0" stop-color="#b3b3b3"></stop><stop offset="1" stop-color="#4d4d4d"></stop></linearGradient><linearGradient id="linear-gradient-13" x1="299.43" y1="487.35" x2="318.22" y2="657.65" xlink:href="#linear-gradient-12"></linearGradient><linearGradient id="linear-gradient-14" x1="408.81" y1="488.39" x2="411.27" y2="518.68" xlink:href="#linear-gradient-10"></linearGradient><linearGradient id="linear-gradient-15" x1="195.66" y1="472.59" x2="222.83" y2="472.59" xlink:href="#linear-gradient-12"></linearGradient><linearGradient id="linear-gradient-16" x1="174.16" y1="613.37" x2="234.5" y2="613.37" gradientTransform="translate(493.57 35.17) rotate(45)" gradientUnits="userSpaceOnUse"><stop offset="0" stop-color="#333"></stop><stop offset="1"></stop></linearGradient><linearGradient id="linear-gradient-17" x1="409.21" y1="613.37" x2="469.54" y2="613.37" gradientTransform="translate(562.41 -131.03) rotate(45)" xlink:href="#linear-gradient-16"></linearGradient><linearGradient id="linear-gradient-18" x1="291.7" y1="510.33" x2="294.35" y2="535.66" xlink:href="#linear-gradient-12"></linearGradient><linearGradient id="linear-gradient-19" x1="316.48" y1="510.33" x2="319.13" y2="535.66" xlink:href="#linear-gradient-12"></linearGradient><linearGradient id="linear-gradient-20" x1="375.47" y1="543.82" x2="376.09" y2="548.97" xlink:href="#linear-gradient-12"></linearGradient><linearGradient id="linear-gradient-21" x1="375.32" y1="543.84" x2="375.95" y2="548.99" xlink:href="#linear-gradient-12"></linearGradient><linearGradient id="linear-gradient-22" x1="375.4" y1="543.83" x2="376.03" y2="548.98" xlink:href="#linear-gradient-12"></linearGradient><linearGradient id="linear-gradient-23" x1="375.32" y1="543.45" x2="375.73" y2="546.56" xlink:href="#linear-gradient-12"></linearGradient><linearGradient id="linear-gradient-24" x1="366.42" y1="592.45" x2="367.04" y2="597.6" xlink:href="#linear-gradient-12"></linearGradient><linearGradient id="linear-gradient-25" x1="366.27" y1="592.47" x2="366.9" y2="597.62" xlink:href="#linear-gradient-12"></linearGradient><linearGradient id="linear-gradient-26" x1="366.35" y1="592.46" x2="366.98" y2="597.61" xlink:href="#linear-gradient-12"></linearGradient><linearGradient id="linear-gradient-27" x1="366.27" y1="592.08" x2="366.69" y2="595.19" xlink:href="#linear-gradient-12"></linearGradient><linearGradient id="linear-gradient-28" x1="454.22" y1="543.82" x2="454.84" y2="548.97" xlink:href="#linear-gradient-12"></linearGradient><linearGradient id="linear-gradient-29" x1="454.07" y1="543.84" x2="454.7" y2="548.99" xlink:href="#linear-gradient-12"></linearGradient><linearGradient id="linear-gradient-30" x1="454.15" y1="543.83" x2="454.78" y2="548.98" xlink:href="#linear-gradient-12"></linearGradient><linearGradient id="linear-gradient-31" x1="454.07" y1="543.45" x2="454.48" y2="546.56" xlink:href="#linear-gradient-12"></linearGradient><linearGradient id="linear-gradient-32" x1="321.33" y1="456.61" x2="323.97" y2="481.06" xlink:href="#linear-gradient-12"></linearGradient><linearGradient id="linear-gradient-33" x1="320.6" y1="451.74" x2="321.37" y2="458.84" xlink:href="#linear-gradient-12"></linearGradient><linearGradient id="linear-gradient-34" x1="5136.64" y1="524.74" x2="5146.39" y2="534.31" gradientTransform="matrix(-1, 0, 0, 1, 6094.48, 0)" xlink:href="#linear-gradient-10"></linearGradient><linearGradient id="linear-gradient-35" x1="5161.27" y1="480.09" x2="5181.12" y2="514.59" gradientTransform="matrix(-1, 0, 0, 1, 6094.48, 0)" xlink:href="#linear-gradient-10"></linearGradient><linearGradient id="linear-gradient-36" x1="5216.92" y1="554.34" x2="5216.92" y2="561.03" gradientTransform="matrix(-1, 0, 0, 1, 6094.48, 0)" xlink:href="#linear-gradient-12"></linearGradient><linearGradient id="linear-gradient-37" x1="5232.83" y1="493.76" x2="5242.65" y2="582.77" gradientTransform="matrix(1, 0, 0, -1, -4378.18, 1046.29)" xlink:href="#linear-gradient-12"></linearGradient><linearGradient id="linear-gradient-38" x1="5270.45" y1="495.68" x2="5271.74" y2="511.57" gradientTransform="matrix(-1, 0, 0, 1, 6094.48, 0)" xlink:href="#linear-gradient-10"></linearGradient><linearGradient id="linear-gradient-39" x1="5178.49" y1="485.78" x2="5192.75" y2="485.78" gradientTransform="matrix(1, 0, 0, -1, -4276.75, 971.56)" xlink:href="#linear-gradient-12"></linearGradient><linearGradient id="linear-gradient-40" x1="5167.22" y1="559.63" x2="5198.87" y2="559.63" gradientTransform="matrix(-1, 0, 0, 1, 6094.48, 0)" xlink:href="#linear-gradient-16"></linearGradient><linearGradient id="linear-gradient-41" x1="5290.52" y1="559.63" x2="5322.17" y2="559.63" gradientTransform="matrix(-1, 0, 0, 1, 6094.48, 0)" xlink:href="#linear-gradient-16"></linearGradient><linearGradient id="linear-gradient-42" x1="5228.88" y1="505.57" x2="5230.26" y2="518.86" gradientTransform="matrix(-1, 0, 0, 1, 6094.48, 0)" xlink:href="#linear-gradient-12"></linearGradient><linearGradient id="linear-gradient-43" x1="5241.87" y1="505.57" x2="5243.26" y2="518.86" gradientTransform="matrix(-1, 0, 0, 1, 6094.48, 0)" xlink:href="#linear-gradient-12"></linearGradient><linearGradient id="linear-gradient-44" x1="5272.82" y1="523.15" x2="5273.14" y2="525.85" gradientTransform="matrix(-1, 0, 0, 1, 6094.48, 0)" xlink:href="#linear-gradient-12"></linearGradient><linearGradient id="linear-gradient-45" x1="5272.74" y1="523.16" x2="5273.07" y2="525.86" gradientTransform="matrix(-1, 0, 0, 1, 6094.48, 0)" xlink:href="#linear-gradient-12"></linearGradient><linearGradient id="linear-gradient-46" x1="5272.78" y1="523.15" x2="5273.11" y2="525.85" gradientTransform="matrix(-1, 0, 0, 1, 6094.48, 0)" xlink:href="#linear-gradient-12"></linearGradient><linearGradient id="linear-gradient-47" x1="5272.74" y1="522.95" x2="5272.96" y2="524.58" gradientTransform="matrix(-1, 0, 0, 1, 6094.48, 0)" xlink:href="#linear-gradient-12"></linearGradient><linearGradient id="linear-gradient-48" x1="5268.07" y1="548.66" x2="5268.4" y2="551.36" gradientTransform="matrix(-1, 0, 0, 1, 6094.48, 0)" xlink:href="#linear-gradient-12"></linearGradient><linearGradient id="linear-gradient-49" x1="5267.99" y1="548.67" x2="5268.32" y2="551.37" gradientTransform="matrix(-1, 0, 0, 1, 6094.48, 0)" xlink:href="#linear-gradient-12"></linearGradient><linearGradient id="linear-gradient-50" x1="5268.03" y1="548.66" x2="5268.36" y2="551.36" gradientTransform="matrix(-1, 0, 0, 1, 6094.48, 0)" xlink:href="#linear-gradient-12"></linearGradient><linearGradient id="linear-gradient-51" x1="5267.99" y1="548.46" x2="5268.21" y2="550.09" gradientTransform="matrix(-1, 0, 0, 1, 6094.48, 0)" xlink:href="#linear-gradient-12"></linearGradient><linearGradient id="linear-gradient-52" x1="5244.76" y1="477.36" x2="5246.11" y2="489.92" gradientTransform="matrix(1, 0, 0, -1, -4395.51, 972.57)" xlink:href="#linear-gradient-12"></linearGradient><linearGradient id="linear-gradient-53" x1="5244.04" y1="474.84" x2="5244.44" y2="478.57" gradientTransform="matrix(1, 0, 0, -1, -4394.13, 954.71)" xlink:href="#linear-gradient-12"></linearGradient><linearGradient id="linear-gradient-54" x1="805.82" y1="446.45" x2="817.04" y2="446.45" gradientTransform="translate(1622.87 892.89) rotate(-180)" gradientUnits="userSpaceOnUse"><stop offset="0" stop-color="#d04f4c"></stop><stop offset="1" stop-color="#e48845"></stop></linearGradient><linearGradient id="linear-gradient-55" x1="443.06" y1="184.74" x2="443.06" y2="204.33" gradientUnits="userSpaceOnUse"><stop offset="0" stop-color="#a54957"></stop><stop offset="1" stop-color="#fff"></stop></linearGradient><linearGradient id="linear-gradient-56" x1="669.15" y1="306.54" x2="669.15" y2="326.13" xlink:href="#linear-gradient-55"></linearGradient><linearGradient id="linear-gradient-57" x1="669.15" y1="398.2" x2="669.15" y2="417.79" xlink:href="#linear-gradient-55"></linearGradient><linearGradient id="linear-gradient-58" x1="3488.72" y1="527.84" x2="3558.14" y2="527.84" gradientTransform="matrix(-1, 0, 0, 1, 4331.78, 0)" xlink:href="#linear-gradient-10"></linearGradient><linearGradient id="linear-gradient-59" x1="3518.46" y1="695.09" x2="3537.17" y2="697.41" gradientTransform="matrix(-1, 0, 0, 1, 4331.78, 0)" gradientUnits="userSpaceOnUse"><stop offset="0" stop-color="#fbb03b"></stop><stop offset="1" stop-color="#a15b29"></stop></linearGradient><linearGradient id="linear-gradient-60" x1="3459.77" y1="717.46" x2="3510.39" y2="724.23" gradientTransform="matrix(-1, 0, 0, 1, 4331.78, 0)" xlink:href="#linear-gradient-10"></linearGradient><linearGradient id="linear-gradient-61" x1="770.66" y1="625.11" x2="813.91" y2="630.33" xlink:href="#linear-gradient-10"></linearGradient><linearGradient id="linear-gradient-62" x1="3462.8" y1="694.85" x2="3513.41" y2="701.62" gradientTransform="matrix(-1, 0, 0, 1, 4331.78, 0)" xlink:href="#linear-gradient-10"></linearGradient><linearGradient id="linear-gradient-63" x1="3516.6" y1="710.15" x2="3535.31" y2="712.46" xlink:href="#linear-gradient-59"></linearGradient><linearGradient id="linear-gradient-64" x1="806.78" y1="634.82" x2="846.7" y2="630.54" xlink:href="#linear-gradient-10"></linearGradient><linearGradient id="linear-gradient-65" x1="3452.24" y1="717.76" x2="3469.01" y2="725.78" gradientTransform="matrix(-1, 0, 0, 1, 4331.78, 0)" xlink:href="#linear-gradient-10"></linearGradient><linearGradient id="linear-gradient-66" x1="3454.53" y1="692.84" x2="3476.03" y2="703.11" gradientTransform="matrix(-1, 0, 0, 1, 4331.78, 0)" xlink:href="#linear-gradient-10"></linearGradient><linearGradient id="linear-gradient-67" x1="3473.79" y1="694.96" x2="3490.19" y2="694.78" xlink:href="#linear-gradient-59"></linearGradient><linearGradient id="linear-gradient-68" x1="3469.36" y1="709.68" x2="3484.33" y2="713.25" xlink:href="#linear-gradient-59"></linearGradient><linearGradient id="linear-gradient-69" x1="772.96" y1="484.24" x2="827.61" y2="498.5" xlink:href="#linear-gradient-10"></linearGradient><linearGradient id="linear-gradient-70" x1="756.25" y1="548.3" x2="810.9" y2="562.56" xlink:href="#linear-gradient-10"></linearGradient><linearGradient id="linear-gradient-71" x1="3445.87" y1="404.3" x2="3498.91" y2="436.97" gradientTransform="matrix(-1, 0.07, 0.07, 1, 4288.83, -144.84)" xlink:href="#linear-gradient-10"></linearGradient><linearGradient id="linear-gradient-72" x1="818.6" y1="529.03" x2="865.18" y2="529.03" gradientTransform="matrix(1, 0, 0, 1, 0, 0)" xlink:href="#linear-gradient-59"></linearGradient><linearGradient id="linear-gradient-73" x1="777.99" y1="594.59" x2="878.27" y2="588.65" gradientTransform="matrix(1, 0, 0, 1, 0, 0)" xlink:href="#linear-gradient-59"></linearGradient><linearGradient id="linear-gradient-74" x1="3499.67" y1="474.53" x2="3518.23" y2="474.53" xlink:href="#linear-gradient-59"></linearGradient><linearGradient id="linear-gradient-75" x1="805.73" y1="439.73" x2="824.26" y2="448.02" xlink:href="#linear-gradient-10"></linearGradient><linearGradient id="linear-gradient-76" x1="805.7" y1="444.49" x2="826.64" y2="452.77" xlink:href="#linear-gradient-10"></linearGradient><linearGradient id="linear-gradient-77" x1="2938.54" y1="-459.53" x2="2977.53" y2="-448.95" gradientTransform="matrix(-0.64, 0.77, 0.77, 0.64, 3132.56, -1465.09)" xlink:href="#linear-gradient-10"></linearGradient><linearGradient id="linear-gradient-78" x1="3466" y1="562.34" x2="3481.68" y2="555.45" xlink:href="#linear-gradient-59"></linearGradient><linearGradient id="linear-gradient-79" x1="816.54" y1="486.74" x2="842.02" y2="498.32" xlink:href="#linear-gradient-10"></linearGradient><linearGradient id="linear-gradient-80" x1="850.12" y1="530.51" x2="866.28" y2="531.93" xlink:href="#linear-gradient-10"></linearGradient><linearGradient id="linear-gradient-81" x1="850.74" y1="509.15" x2="872.6" y2="503.44" gradientTransform="matrix(1, 0, 0, 1, 0, 0)" xlink:href="#linear-gradient-59"></linearGradient><linearGradient id="linear-gradient-82" x1="825.41" y1="527.84" x2="894.84" y2="527.84" gradientTransform="translate(-261.7)" xlink:href="#linear-gradient-10"></linearGradient><linearGradient id="linear-gradient-83" x1="855.16" y1="695.09" x2="873.87" y2="697.41" gradientTransform="translate(-261.7)" xlink:href="#linear-gradient-59"></linearGradient><linearGradient id="linear-gradient-84" x1="796.47" y1="717.46" x2="847.08" y2="724.23" gradientTransform="translate(-261.7)" xlink:href="#linear-gradient-10"></linearGradient><linearGradient id="linear-gradient-85" x1="808.9" y1="624.58" x2="859.51" y2="631.35" gradientTransform="translate(-261.7)" xlink:href="#linear-gradient-10"></linearGradient><linearGradient id="linear-gradient-86" x1="799.5" y1="694.85" x2="850.11" y2="701.62" gradientTransform="translate(-261.7)" xlink:href="#linear-gradient-10"></linearGradient><linearGradient id="linear-gradient-87" x1="853.29" y1="710.15" x2="872.01" y2="712.46" gradientTransform="translate(-261.7)" xlink:href="#linear-gradient-59"></linearGradient><linearGradient id="linear-gradient-88" x1="766.86" y1="602.01" x2="824.63" y2="629.63" gradientTransform="translate(-261.7)" xlink:href="#linear-gradient-10"></linearGradient><linearGradient id="linear-gradient-89" x1="788.93" y1="717.76" x2="805.71" y2="725.78" gradientTransform="translate(-261.7)" xlink:href="#linear-gradient-10"></linearGradient><linearGradient id="linear-gradient-90" x1="791.22" y1="692.84" x2="812.72" y2="703.11" gradientTransform="translate(-261.7)" xlink:href="#linear-gradient-10"></linearGradient><linearGradient id="linear-gradient-91" x1="810.49" y1="694.96" x2="826.89" y2="694.78" gradientTransform="translate(-261.7)" xlink:href="#linear-gradient-59"></linearGradient><linearGradient id="linear-gradient-92" x1="806.06" y1="709.68" x2="821.03" y2="713.25" gradientTransform="translate(-261.7)" xlink:href="#linear-gradient-59"></linearGradient><linearGradient id="linear-gradient-93" x1="637.03" y1="1074.31" x2="644.15" y2="1074.31" gradientTransform="translate(-81.59 -621.41)" xlink:href="#linear-gradient-16"></linearGradient><linearGradient id="linear-gradient-94" x1="532.79" y1="503.61" x2="554" y2="513.23" gradientTransform="matrix(1, 0, 0, 1, 0, 0)" xlink:href="#linear-gradient-59"></linearGradient><linearGradient id="linear-gradient-95" x1="620.72" y1="1102.3" x2="660.46" y2="1102.3" gradientTransform="translate(-90.46 -622.86)" xlink:href="#linear-gradient-16"></linearGradient><linearGradient id="linear-gradient-96" x1="620.72" y1="1160.2" x2="660.46" y2="1160.2" gradientTransform="matrix(1, 0, 0, 1, -108.82, -625.85)" xlink:href="#linear-gradient-16"></linearGradient><linearGradient id="linear-gradient-97" x1="804.62" y1="476.65" x2="845.2" y2="501.65" gradientTransform="translate(-261.7)" xlink:href="#linear-gradient-10"></linearGradient><linearGradient id="linear-gradient-98" x1="772.1" y1="525.68" x2="837.2" y2="565.79" gradientTransform="translate(-261.7)" xlink:href="#linear-gradient-10"></linearGradient><linearGradient id="linear-gradient-99" x1="788.88" y1="586.19" x2="841.91" y2="618.86" gradientTransform="translate(-218.74 -144.84) rotate(3.92)" xlink:href="#linear-gradient-10"></linearGradient><linearGradient id="linear-gradient-100" x1="824.39" y1="527.41" x2="888.55" y2="532.4" gradientTransform="translate(-261.7)" xlink:href="#linear-gradient-59"></linearGradient><linearGradient id="linear-gradient-101" x1="792.61" y1="591.51" x2="883.6" y2="591.51" gradientTransform="translate(-261.7)" xlink:href="#linear-gradient-59"></linearGradient><linearGradient id="linear-gradient-102" x1="836.36" y1="474.53" x2="854.93" y2="474.53" gradientTransform="translate(-261.7)" xlink:href="#linear-gradient-59"></linearGradient><linearGradient id="linear-gradient-103" x1="853.35" y1="637.5" x2="863.65" y2="643.65" gradientTransform="translate(-166.95 -317.21) rotate(8.56)" xlink:href="#linear-gradient-10"></linearGradient><linearGradient id="linear-gradient-104" x1="849.35" y1="517.52" x2="848.13" y2="512.07" gradientTransform="translate(-236.89 -102.06) rotate(2.72)" xlink:href="#linear-gradient-10"></linearGradient><linearGradient id="linear-gradient-105" x1="1223.31" y1="1577.97" x2="1262.29" y2="1588.56" gradientTransform="translate(937.53 -1465.09) rotate(49.91)" xlink:href="#linear-gradient-10"></linearGradient><linearGradient id="linear-gradient-106" x1="802.69" y1="562.34" x2="818.38" y2="555.45" gradientTransform="translate(-261.7)" xlink:href="#linear-gradient-59"></linearGradient><linearGradient id="linear-gradient-107" x1="535.96" y1="508.48" x2="588.98" y2="508.48" gradientTransform="matrix(1, 0, 0, 1, 0, 0)" xlink:href="#linear-gradient-16"></linearGradient><linearGradient id="linear-gradient-108" x1="1233.45" y1="1540.64" x2="1272.44" y2="1551.23" gradientTransform="translate(937.53 -1465.09) rotate(49.91)" xlink:href="#linear-gradient-10"></linearGradient><linearGradient id="linear-gradient-109" x1="1224.13" y1="1574.94" x2="1263.12" y2="1585.53" gradientTransform="translate(937.53 -1465.09) rotate(49.91)" xlink:href="#linear-gradient-10"></linearGradient><linearGradient id="linear-gradient-110" x1="802.45" y1="497.45" x2="827.04" y2="525.97" gradientTransform="translate(-261.7)" xlink:href="#linear-gradient-59"></linearGradient><linearGradient id="linear-gradient-111" x1="947.21" y1="697.77" x2="987.19" y2="697.77" xlink:href="#linear-gradient-10"></linearGradient><linearGradient id="linear-gradient-112" x1="961.71" y1="627.53" x2="972.69" y2="627.53" xlink:href="#linear-gradient-10"></linearGradient><linearGradient id="linear-gradient-113" x1="934.85" y1="673.97" x2="939.07" y2="673.97" xlink:href="#linear-gradient-10"></linearGradient><linearGradient id="linear-gradient-114" x1="939.07" y1="673.97" x2="947.2" y2="673.97" xlink:href="#linear-gradient-10"></linearGradient><linearGradient id="linear-gradient-115" x1="995.26" y1="673.97" x2="999.48" y2="673.97" gradientTransform="translate(1994.74 1347.95) rotate(-180)" xlink:href="#linear-gradient-10"></linearGradient><linearGradient id="linear-gradient-116" x1="987.13" y1="673.97" x2="995.26" y2="673.97" gradientTransform="translate(1982.4 1347.95) rotate(-180)" xlink:href="#linear-gradient-10"></linearGradient><linearGradient id="linear-gradient-117" x1="947.21" y1="638.31" x2="987.19" y2="638.31" xlink:href="#linear-gradient-10"></linearGradient><linearGradient id="linear-gradient-118" x1="944.24" y1="652.63" x2="990.16" y2="652.63" gradientUnits="userSpaceOnUse"><stop offset="0" stop-color="#a91831"></stop><stop offset="1" stop-color="#7e1b00"></stop></linearGradient><linearGradient id="linear-gradient-119" x1="941.15" y1="733.17" x2="993.25" y2="733.17" xlink:href="#linear-gradient-118"></linearGradient><linearGradient id="linear-gradient-120" x1="953.27" y1="681.82" x2="981.13" y2="681.82" xlink:href="#linear-gradient-118"></linearGradient><linearGradient id="linear-gradient-121" x1="947.2" y1="713.22" x2="987.19" y2="713.22" xlink:href="#linear-gradient-118"></linearGradient><linearGradient id="linear-gradient-122" x1="955.32" y1="720.09" x2="956.32" y2="720.09" xlink:href="#linear-gradient-118"></linearGradient><linearGradient id="linear-gradient-123" x1="978.85" y1="720.09" x2="979.85" y2="720.09" xlink:href="#linear-gradient-118"></linearGradient><linearGradient id="linear-gradient-124" x1="955.68" y1="638.32" x2="967.9" y2="638.32" xlink:href="#linear-gradient-118"></linearGradient><linearGradient id="linear-gradient-125" x1="966.58" y1="638.32" x2="978.8" y2="638.32" xlink:href="#linear-gradient-118"></linearGradient></defs><g class="cls-1"><g id="Camada_2" data-name="Camada 2"><g id="OBJECT"><path class="cls-2" d="M1048.29,708.75c-20-1.15-41,5-59.43-3.17-5.24-2.34-10.36-6.25-11.93-12-2.62-9.66,5.9-18.91,14.75-22.57,17.25-7.13,36.86-2.42,55-6.51s35.6-26.14,24.65-42c-10.28-14.84-33.38-7.66-48.28-17.13-18.57-11.8-14.75-42.58-1.61-60.8s32.74-31.05,43-51.24c19.12-37.52-1.4-84.6-29.34-115.3s-63.73-54.21-84.57-90.69c-22.3-39.05-24.08-86.86-32.88-131.53S887.75,63.18,846.78,49c-43.94-15.2-89.67,14.86-125.26,46.09s-74,67.26-120.24,66C548.8,159.7,510.05,111.44,475,70s-84.77-83-134.85-66.25c-38.82,13-60.35,56-75.38,96.06s-30,84.2-64.48,107c-23.68,15.65-52.73,18.41-79.15,27.94l-2.45.92c-28.49,11.07-47.19,31.4-53.34,62.88-6.59,33.8,17.73,71.17,36.1,96.07,34,46.06,72.45,97.13,47.1,158.44a105.83,105.83,0,0,1-39.73,48L57.43,618.7c-15.92,5.43-50,9.94-56.42,30-3.74,11.74,3.47,25.89,12.53,32.47,12,8.7,27.39,9.64,41.91,10.28l14,.62c78.14,3.48,256.54-10.67,234.42,10.45-8.81,9.33-20.43,15.32-32.51,18.58-47,12.67-98.46-12.82-143.31,11.84-8.49,4.67-16.91,12.81-16.3,22.92,1,15.81,20.73,20.29,35.69,20.32l32.57.07H467.28c-7.29,2.77-13.49,9.22-11.2,16.31s11.42,9.21,19,10c151.77,15.36,304.71,12.71,457.22,10,24.88-.43,50-.89,74.2-6.57,7.26-1.7,15.65-5.19,16.89-12.53,1.55-9.16-8.73-14.79-18.1-17.4a27.73,27.73,0,0,1,5-2.66c13.39-5.3,28.26-2.85,42.51-4s30.31-8.16,33.81-22.84C1091.47,726,1068.26,709.9,1048.29,708.75Z"></path><path class="cls-3" d="M891.78,749.59h-95a4.61,4.61,0,0,1-4.6-4.6h0a4.62,4.62,0,0,1,4.6-4.61h95a4.62,4.62,0,0,1,4.6,4.61h0A4.61,4.61,0,0,1,891.78,749.59Z"></path><path class="cls-3" d="M1019.4,744H862.91a4.62,4.62,0,0,1-4.61-4.61h0a4.62,4.62,0,0,1,4.61-4.6H1019.4a4.61,4.61,0,0,1,4.6,4.6h0A4.62,4.62,0,0,1,1019.4,744Z"></path><path class="cls-2" d="M1039.39,843.65a15,15,0,0,0,0-5.56Z"></path><path class="cls-4" d="M935.68,669.08c-10.22-.11-21.14.08-30.27,4.34-10.2,4.77-15,13.89-16,23.15-.64,5.65.23,11.32,1.08,16.93a5.2,5.2,0,0,0,5.47,4.5c2.66-.1,5.85-2,5.47-4.5a79,79,0,0,1-1.29-13.79c0-1.13.1-2.25.23-3.38,0-.24.07-.48.1-.72-.1.89,0,.19,0,0,.11-.53.21-1.06.35-1.58a24.52,24.52,0,0,1,.84-2.73q.21-.57.45-1.14l.34-.75c.16-.38.22-.44,0,0a23.63,23.63,0,0,1,1.53-2.48c.29-.4.58-.79.9-1.17.13-.17.27-.33.41-.49.84-1-.41.33.17-.19.76-.69,1.48-1.38,2.32-2,.25-.19,1.35-.93.51-.4.49-.31,1-.59,1.51-.86a27.12,27.12,0,0,1,2.79-1.28c.37-.15,1.26-.43.37-.15.57-.18,1.14-.36,1.72-.52a47.85,47.85,0,0,1,6.56-1.29l.7-.08c-1.18.14,0,0,.2,0l1.89-.15c1.28-.08,2.56-.14,3.83-.18,2.62-.07,5.24-.06,7.86,0,2.86,0,5.6-2.09,5.47-4.5s-2.4-4.47-5.47-4.5Z"></path><path class="cls-5" d="M867.46,718l47.94-.53a4.5,4.5,0,0,0,0-9l-47.94.53a4.5,4.5,0,0,0,0,9Z"></path><path class="cls-6" d="M863.54,724.47h59a4.5,4.5,0,0,0,0-9h-59a4.5,4.5,0,0,0,0,9Z"></path><path class="cls-7" d="M859.62,731.4H929.3a4.5,4.5,0,0,0,0-9H859.62a4.5,4.5,0,0,0,0,9Z"></path><path class="cls-8" d="M856.94,739.38h77.35a4.5,4.5,0,0,0,0-9H856.94a4.5,4.5,0,0,0,0,9Z"></path><polygon class="cls-3" points="555.66 100.92 559.55 94.28 699.9 168.59 696.01 175.23 694.02 174.17 694.02 563.35 561.22 563.35 561.22 103.86 555.66 100.92"></polygon><rect class="cls-3" x="606.69" y="48.56" width="61.23" height="142.01"></rect><path class="cls-9" d="M866.07,338.45c4.34-16.8,15.37-30.91,24.74-45.51s17.54-31.48,15-48.65-15.18-31.68-16-48.9c-.67-14.26,7.27-27.94,18.29-37s24.79-14.13,38.61-17.69c21-5.41,43.52-7.69,64.37-1.57S1050.87,161,1056.37,182c10.59,40.5-29.41,83.79-13.3,122.43,6.32,15.18,20.92,27.75,20.36,44.18-.65,18.87-16.31,45-34.33,50.65C990.69,411.23,846.5,414.15,866.07,338.45Z"></path><path class="cls-10" d="M983.94,567.91c1.32-116.48,2.81-234.8-19.56-349.11L966.45,401c.64,55.86,1.32,111.35-4.49,166.92"></path><path class="cls-10" d="M968.45,346.2l-48.93-36A477.46,477.46,0,0,1,969.29,364"></path><path class="cls-10" d="M975,317.91l45.07-30.52a253.9,253.9,0,0,1-46.82,37"></path><path class="cls-10" d="M966.38,277.46l-42.21-27.77c3.45,5.84,8.65,10.4,13.76,14.86L970.58,293"></path><path class="cls-10" d="M967.13,240.75A422.09,422.09,0,0,0,1018.29,192c-6.43,11.65-15.52,21.58-24.52,31.39L967.51,252"></path><path class="cls-9" d="M1028.53,551.16c-6.11-5.87-18.1-2.72-20.53,5.41.4-6.73-.25-13.73-3.41-19.69s-9.22-10.7-16-10.86-13.58,5.23-13.73,12c-1-8.1-3.52-17.68-11.28-20.23-7.1-2.32-14.84,3.23-17.63,10.15s-1.94,14.72-1.06,22.13a15.4,15.4,0,0,0-19.16,4.72c-4.08,5.93-3,16,2.37,20.73h103.17C1033.24,567.16,1034.71,557.1,1028.53,551.16Z"></path><polygon class="cls-3" points="739.1 188.68 739.1 165.44 809.16 165.44 809.16 188.68 889.14 188.68 889.14 194.1 878.05 194.1 878.05 570.46 732.5 570.46 732.5 194.1 721.41 194.1 721.41 188.68 739.1 188.68"></polygon><path class="cls-3" d="M490.34,60.56V563.34H360.64V60.56ZM463.77,220.41h15.34V199.68H463.77Zm0-29.84h15.34V169.84H463.77Zm0-59.68h15.34V110.16H463.77Zm0-29.84h15.34V80.32H463.77Zm-20.36,59.68h15.34V140H443.41Zm0-29.84h15.34V110.16H443.41Zm0-29.84h15.34V80.32H443.41ZM423,160.73h15.35V140H423Zm0-59.68h15.35V80.32H423Zm-20.36,29.84H418V110.16H402.68Zm-20.36-29.84h15.34V80.32H382.32Z"></path><path class="cls-9" d="M120.82,363c44.32,18.66,47,23.64,95.08,23.73s98.38-18.3,126.59-57.24c9.59-13.24,16.55-29.69,13.42-45.74s-19.41-30-35.26-26c7.38-12.54,14.89-25.41,17.49-39.72s-.68-30.6-11.87-39.89c-20.07-16.67-52-3.17-75.57-14.39-12.86-6.13-21.67-19-34.81-24.54-14.4-6-32.61-1.13-42,11.33s-9.17,31.31.58,43.52c-21.85-5.9-47.12,6.35-56,27.16s-.31,47.54,19,59.26A46.4,46.4,0,0,0,120.82,363"></path><path class="cls-10" d="M240.73,567.91c1.31-116.48,2.81-234.8-19.57-349.11q1,91.09,2.08,182.19c.63,55.86,1.32,111.35-4.49,166.92"></path><path class="cls-10" d="M225.24,346.2l-48.93-36A477.46,477.46,0,0,1,226.08,364"></path><path class="cls-10" d="M231.79,317.91l45.07-30.52a254.23,254.23,0,0,1-46.82,37"></path><path class="cls-10" d="M225.08,281.42c-17.91-12.58-38.88-34.7-56.79-47.28,4.39,7.93,11,14.13,17.52,20.18L227.37,293"></path><path class="cls-10" d="M223.92,242.65a347.74,347.74,0,0,0,41.86-40.54c-5.26,9.68-12.69,17.93-20.06,26.08L224.23,252"></path><path class="cls-9" d="M300.19,552.12c-6.11-5.88-18.1-2.72-20.53,5.41.39-6.74-.25-13.74-3.41-19.7s-9.22-10.69-16-10.85-13.58,5.23-13.73,12c-1-8.11-3.52-17.69-11.28-20.23-7.1-2.33-14.84,3.22-17.63,10.15s-1.94,14.71-1.06,22.13a15.38,15.38,0,0,0-19.16,4.72c-4.08,5.92-3,16,2.37,20.73H303C304.9,568.11,306.37,558.05,300.19,552.12Z"></path><rect class="cls-11" x="304.68" y="184.47" width="178.79" height="391.03"></rect><rect class="cls-12" x="311.57" y="194.18" width="21.5" height="8.6"></rect><rect class="cls-12" x="408.89" y="194.18" width="21.5" height="8.6"></rect><rect class="cls-12" x="356.55" y="219.7" width="21.5" height="8.6"></rect><rect class="cls-12" x="453.87" y="219.7" width="21.5" height="8.6"></rect><rect class="cls-12" x="311.57" y="241.2" width="21.5" height="8.6"></rect><rect class="cls-12" x="408.89" y="241.2" width="21.5" height="8.6"></rect><rect class="cls-12" x="330.13" y="270.18" width="21.5" height="8.6"></rect><rect class="cls-12" x="427.45" y="270.18" width="21.5" height="8.6"></rect><rect class="cls-12" x="340.88" y="298.7" width="21.5" height="8.6"></rect><rect class="cls-12" x="438.2" y="298.7" width="21.5" height="8.6"></rect><rect class="cls-12" x="325.38" y="328.64" width="21.5" height="8.6"></rect><rect class="cls-12" x="422.69" y="328.64" width="21.5" height="8.6"></rect><rect class="cls-12" x="376.3" y="356.27" width="21.5" height="8.6"></rect><rect class="cls-12" x="473.62" y="356.27" width="21.5" height="8.6"></rect><rect class="cls-12" x="316.89" y="384.96" width="21.5" height="8.6"></rect><rect class="cls-12" x="414.21" y="384.96" width="21.5" height="8.6"></rect><rect class="cls-12" x="333.07" y="397.72" width="21.5" height="8.6"></rect><rect class="cls-12" x="430.39" y="397.72" width="21.5" height="8.6"></rect><rect class="cls-13" x="376.3" y="441" width="21.5" height="8.6"></rect><rect class="cls-13" x="473.62" y="441" width="21.5" height="8.6"></rect><rect class="cls-13" x="314.62" y="454.92" width="21.5" height="8.6"></rect><rect class="cls-13" x="411.94" y="454.92" width="21.5" height="8.6"></rect><path class="cls-14" d="M355.2,409.57c-.22,0-.43,0-.64,0a18.84,18.84,0,0,1,18.2,18.8V481H374V428.41A18.86,18.86,0,0,0,355.2,409.57Z"></path><path class="cls-15" d="M354.05,411.48a16.93,16.93,0,0,0-16.93,16.93v50.71H371V428.41A16.93,16.93,0,0,0,354.05,411.48Z"></path><path class="cls-14" d="M354.56,411.5l-.51,0a16.93,16.93,0,0,0-16.93,16.93v50.71h1V428.41A16.93,16.93,0,0,1,354.56,411.5Z"></path><rect class="cls-14" x="353.32" y="410.83" width="1.68" height="69.34"></rect><rect class="cls-16" x="352.48" y="410.83" width="1.68" height="69.34"></rect><path class="cls-16" d="M354.05,409.57a18.86,18.86,0,0,0-18.83,18.84V481h37.67V428.41A18.86,18.86,0,0,0,354.05,409.57ZM371,479.12H337.12V428.41a16.93,16.93,0,0,1,33.86,0Z"></path><rect class="cls-16" x="353.21" y="411.91" width="1.68" height="33.86" transform="translate(782.89 74.79) rotate(90)"></rect><rect class="cls-16" x="353.21" y="428.56" width="1.68" height="33.86" transform="translate(799.55 91.44) rotate(90)"></rect><rect class="cls-16" x="353.21" y="445.52" width="1.68" height="33.86" transform="translate(816.5 108.4) rotate(90)"></rect><rect class="cls-17" x="483.46" y="184.47" width="97.97" height="391.03"></rect><rect class="cls-18" x="486.4" y="207.51" width="21.5" height="8.6"></rect><rect class="cls-18" x="552.71" y="280.11" width="21.5" height="8.6"></rect><rect class="cls-18" x="506.77" y="251.63" width="21.5" height="8.6"></rect><rect class="cls-18" x="546.6" y="191.69" width="21.5" height="8.6"></rect><rect class="cls-16" x="289.58" y="172.52" width="181.71" height="11.95"></rect><rect class="cls-19" x="471.29" y="172.52" width="121.35" height="11.95"></rect><path class="cls-14" d="M355.2,203.89c-.22,0-.43,0-.64,0a18.85,18.85,0,0,1,18.2,18.81v52.62H374V222.73A18.86,18.86,0,0,0,355.2,203.89Z"></path><path class="cls-15" d="M354.05,205.8a16.93,16.93,0,0,0-16.93,16.93v50.71H371V222.73A16.93,16.93,0,0,0,354.05,205.8Z"></path><path class="cls-14" d="M354.56,205.82l-.51,0a16.93,16.93,0,0,0-16.93,16.93v50.71h1V222.73A16.92,16.92,0,0,1,354.56,205.82Z"></path><rect class="cls-14" x="353.32" y="205.15" width="1.68" height="69.34"></rect><rect class="cls-16" x="352.48" y="205.15" width="1.68" height="69.34"></rect><path class="cls-16" d="M354.05,203.89a18.86,18.86,0,0,0-18.83,18.84v52.62h37.67V222.73A18.86,18.86,0,0,0,354.05,203.89ZM371,273.44H337.12V222.73a16.93,16.93,0,0,1,33.86,0Z"></path><rect class="cls-16" x="353.21" y="206.23" width="1.68" height="33.86" transform="translate(577.21 -130.89) rotate(90)"></rect><rect class="cls-16" x="353.21" y="222.88" width="1.68" height="33.86" transform="translate(593.87 -114.24) rotate(90)"></rect><rect class="cls-16" x="353.21" y="239.84" width="1.68" height="33.86" transform="translate(610.82 -97.28) rotate(90)"></rect><path class="cls-14" d="M537.37,203.89c.22,0,.43,0,.64,0a18.85,18.85,0,0,0-18.2,18.81v52.62h-1.27V222.73A18.86,18.86,0,0,1,537.37,203.89Z"></path><path class="cls-15" d="M538.52,205.8a16.93,16.93,0,0,1,16.93,16.93v50.71H521.59V222.73A16.93,16.93,0,0,1,538.52,205.8Z"></path><path class="cls-14" d="M538,205.82l.51,0a16.93,16.93,0,0,1,16.93,16.93v50.71h-1V222.73A16.92,16.92,0,0,0,538,205.82Z"></path><rect class="cls-14" x="537.57" y="205.15" width="1.68" height="69.34" transform="translate(1076.81 479.63) rotate(180)"></rect><rect class="cls-16" x="538.41" y="205.15" width="1.68" height="69.34" transform="translate(1078.5 479.63) rotate(180)"></rect><path class="cls-16" d="M519.68,222.73v52.62h37.67V222.73a18.84,18.84,0,1,0-37.67,0Zm1.91,0a16.93,16.93,0,0,1,33.86,0v50.71H521.59Z"></path><rect class="cls-16" x="537.68" y="206.23" width="1.68" height="33.86" transform="translate(761.68 -315.36) rotate(90)"></rect><rect class="cls-16" x="537.68" y="222.88" width="1.68" height="33.86" transform="translate(778.33 -298.7) rotate(90)"></rect><rect class="cls-16" x="537.68" y="239.84" width="1.68" height="33.86" transform="translate(795.29 -281.75) rotate(90)"></rect><path class="cls-14" d="M355.2,308.53c-.22,0-.43,0-.64,0a18.85,18.85,0,0,1,18.2,18.81V380H374V327.37A18.86,18.86,0,0,0,355.2,308.53Z"></path><path class="cls-15" d="M354.05,310.44a16.93,16.93,0,0,0-16.93,16.93v50.71H371V327.37A16.93,16.93,0,0,0,354.05,310.44Z"></path><path class="cls-14" d="M354.56,310.46l-.51,0a16.93,16.93,0,0,0-16.93,16.93v50.71h1V327.37A16.92,16.92,0,0,1,354.56,310.46Z"></path><rect class="cls-14" x="353.32" y="309.79" width="1.68" height="69.34"></rect><rect class="cls-16" x="352.48" y="309.79" width="1.68" height="69.34"></rect><path class="cls-16" d="M354.05,308.53a18.86,18.86,0,0,0-18.83,18.84V380h37.67V327.37A18.86,18.86,0,0,0,354.05,308.53ZM371,378.08H337.12V327.37a16.93,16.93,0,1,1,33.86,0Z"></path><rect class="cls-16" x="353.21" y="310.87" width="1.68" height="33.86" transform="translate(681.85 -26.25) rotate(90)"></rect><rect class="cls-16" x="353.21" y="327.52" width="1.68" height="33.86" transform="translate(698.51 -9.6) rotate(90)"></rect><rect class="cls-16" x="353.21" y="344.48" width="1.68" height="33.86" transform="translate(715.46 7.36) rotate(90)"></rect><path class="cls-14" d="M434,203.89c-.22,0-.43,0-.64,0a18.85,18.85,0,0,1,18.2,18.81v52.62h1.27V222.73A18.86,18.86,0,0,0,434,203.89Z"></path><path class="cls-15" d="M432.89,205.8A16.93,16.93,0,0,0,416,222.73v50.71h33.86V222.73A16.93,16.93,0,0,0,432.89,205.8Z"></path><path class="cls-14" d="M433.4,205.82l-.51,0A16.93,16.93,0,0,0,416,222.73v50.71h1V222.73A16.92,16.92,0,0,1,433.4,205.82Z"></path><rect class="cls-14" x="432.16" y="205.15" width="1.68" height="69.34"></rect><rect class="cls-16" x="431.32" y="205.15" width="1.68" height="69.34"></rect><path class="cls-16" d="M432.89,203.89a18.86,18.86,0,0,0-18.84,18.84v52.62h37.68V222.73A18.86,18.86,0,0,0,432.89,203.89Zm16.93,69.55H416V222.73a16.93,16.93,0,0,1,33.86,0Z"></path><rect class="cls-16" x="432.05" y="206.23" width="1.68" height="33.86" transform="translate(656.05 -209.73) rotate(90)"></rect><rect class="cls-16" x="432.05" y="222.88" width="1.68" height="33.86" transform="translate(672.71 -193.07) rotate(90)"></rect><rect class="cls-16" x="432.05" y="239.84" width="1.68" height="33.86" transform="translate(689.66 -176.12) rotate(90)"></rect><rect class="cls-20" x="768.69" y="245.72" width="5.71" height="60.15" transform="translate(41.07 646.94) rotate(-46.6)"></rect><path class="cls-20" d="M434.52,245.5H733.88a25,25,0,0,1,25,25v23a0,0,0,0,1,0,0H409.51a0,0,0,0,1,0,0v-23A25,25,0,0,1,434.52,245.5Z"></path><path class="cls-21" d="M428.19,245.5H727.54a25,25,0,0,1,25,25v23a0,0,0,0,1,0,0H403.17a0,0,0,0,1,0,0v-23A25,25,0,0,1,428.19,245.5Z"></path><rect class="cls-22" x="763.19" y="306.27" width="172.96" height="269.23"></rect><rect class="cls-23" x="402.15" y="306.27" width="362.25" height="269.23"></rect><rect class="cls-24" x="627.78" y="406.92" width="21.5" height="8.6"></rect><rect class="cls-24" x="725.1" y="406.92" width="21.5" height="8.6"></rect><rect class="cls-25" x="811.95" y="406.92" width="21.5" height="8.6"></rect><rect class="cls-25" x="909.26" y="406.92" width="21.5" height="8.6"></rect><rect class="cls-25" x="768.47" y="311.03" width="21.5" height="8.6"></rect><rect class="cls-25" x="865.79" y="311.03" width="21.5" height="8.6"></rect><rect class="cls-25" x="811.95" y="341.06" width="21.5" height="8.6"></rect><rect class="cls-25" x="909.26" y="341.06" width="21.5" height="8.6"></rect><rect class="cls-25" x="778.93" y="371.39" width="21.5" height="8.6"></rect><rect class="cls-25" x="876.25" y="371.39" width="21.5" height="8.6"></rect><rect class="cls-25" x="769.11" y="448.51" width="21.5" height="8.6"></rect><rect class="cls-25" x="866.43" y="448.51" width="21.5" height="8.6"></rect><rect class="cls-25" x="811.95" y="469.91" width="21.5" height="8.6"></rect><rect class="cls-25" x="909.26" y="469.91" width="21.5" height="8.6"></rect><rect class="cls-25" x="773.53" y="539.88" width="21.5" height="8.6"></rect><rect class="cls-25" x="870.85" y="539.88" width="21.5" height="8.6"></rect><rect class="cls-24" x="460.48" y="345.36" width="21.5" height="8.6"></rect><rect class="cls-24" x="557.8" y="345.36" width="21.5" height="8.6"></rect><rect class="cls-24" x="570.76" y="345.36" width="21.5" height="8.6"></rect><rect class="cls-24" x="668.08" y="345.36" width="21.5" height="8.6"></rect><rect class="cls-24" x="426.99" y="375.69" width="21.5" height="8.6"></rect><rect class="cls-24" x="524.31" y="375.69" width="21.5" height="8.6"></rect><rect class="cls-24" x="579.12" y="374.83" width="21.5" height="8.6"></rect><rect class="cls-24" x="676.44" y="374.83" width="21.5" height="8.6"></rect><rect class="cls-24" x="446.83" y="406.92" width="21.5" height="8.6"></rect><rect class="cls-24" x="544.15" y="406.92" width="21.5" height="8.6"></rect><rect class="cls-24" x="475.94" y="487.68" width="21.5" height="8.6"></rect><rect class="cls-24" x="573.26" y="487.68" width="21.5" height="8.6"></rect><rect class="cls-24" x="464.9" y="542.47" width="21.5" height="8.6"></rect><rect class="cls-24" x="562.22" y="542.47" width="21.5" height="8.6"></rect><rect class="cls-24" x="405.49" y="517.42" width="21.5" height="8.6"></rect><rect class="cls-24" x="502.81" y="517.42" width="21.5" height="8.6"></rect><rect class="cls-24" x="430.99" y="438.84" width="21.5" height="8.6"></rect><rect class="cls-24" x="528.31" y="438.84" width="21.5" height="8.6"></rect><rect class="cls-24" x="638.53" y="464.78" width="21.5" height="8.6"></rect><rect class="cls-24" x="735.85" y="464.78" width="21.5" height="8.6"></rect><rect class="cls-24" x="632.4" y="522.7" width="21.5" height="8.6"></rect><rect class="cls-24" x="729.72" y="522.7" width="21.5" height="8.6"></rect><rect class="cls-24" x="411.82" y="311.03" width="21.5" height="8.6"></rect><rect class="cls-24" x="509.14" y="311.03" width="21.5" height="8.6"></rect><rect class="cls-24" x="605.89" y="311.03" width="21.5" height="8.6"></rect><rect class="cls-24" x="703.21" y="311.03" width="21.5" height="8.6"></rect><path class="cls-26" d="M661,429.63h0a63.61,63.61,0,0,0-63.61,63.6v82.23H724.55V493.23A63.6,63.6,0,0,0,661,429.63Z"></path><polyline class="cls-27" points="640.13 430.82 643.54 430.82 643.54 575.46 640.13 575.46"></polyline><polyline class="cls-27" points="727.96 509.4 727.96 512.32 600.18 512.32 600.18 509.4"></polyline><polyline class="cls-27" points="729.19 543.57 729.19 546.48 601.41 546.48 601.41 543.57"></polyline><path class="cls-28" d="M663.79,424h0a69.17,69.17,0,0,0-69.18,69.17v82.32h5.57V493.23a63.61,63.61,0,0,1,63.61-63.6h0a63.61,63.61,0,0,1,63.6,63.6v82.23H733V493.14A69.17,69.17,0,0,0,663.79,424Z"></path><rect class="cls-27" x="680.17" y="430.82" width="3.41" height="144.64"></rect><path class="cls-16" d="M661,424h0a69.17,69.17,0,0,0-69.17,69.17v82.32h5.56V493.23A63.61,63.61,0,0,1,661,429.63h0a63.6,63.6,0,0,1,63.6,63.6v82.23h5.57V493.14A69.17,69.17,0,0,0,661,424Z"></path><rect class="cls-29" x="603.61" y="483.46" width="36.57" height="25.95"></rect><rect class="cls-29" x="643.59" y="483.46" width="36.57" height="25.95"></rect><rect class="cls-29" x="683.58" y="483.46" width="36.57" height="25.95"></rect><rect class="cls-29" x="603.61" y="512.32" width="36.57" height="25.95"></rect><rect class="cls-29" x="643.59" y="512.32" width="36.57" height="25.95"></rect><rect class="cls-29" x="683.58" y="512.32" width="36.57" height="25.95"></rect><path class="cls-26" d="M490.4,429.63h0a63.61,63.61,0,0,0-63.6,63.6v82.23H554V493.23A63.61,63.61,0,0,0,490.4,429.63Z"></path><polyline class="cls-27" points="469.58 430.82 473 430.82 473 575.46 469.58 575.46"></polyline><polyline class="cls-27" points="557.42 509.4 557.42 512.32 429.64 512.32 429.64 509.4"></polyline><polyline class="cls-27" points="558.65 543.57 558.65 546.48 430.87 546.48 430.87 543.57"></polyline><path class="cls-28" d="M493.24,424h0a69.17,69.17,0,0,0-69.17,69.17v82.32h5.57V493.23a63.6,63.6,0,0,1,63.6-63.6h0a63.61,63.61,0,0,1,63.61,63.6v82.23h5.56V493.14A69.17,69.17,0,0,0,493.24,424Z"></path><rect class="cls-27" x="509.62" y="430.82" width="3.41" height="144.64"></rect><path class="cls-16" d="M490.4,424h0a69.17,69.17,0,0,0-69.17,69.17v82.32h5.57V493.23a63.61,63.61,0,0,1,63.6-63.6h0A63.61,63.61,0,0,1,554,493.23v82.23h5.57V493.14A69.17,69.17,0,0,0,490.4,424Z"></path><rect class="cls-29" x="433.06" y="483.46" width="36.57" height="25.95"></rect><rect class="cls-29" x="473.05" y="483.46" width="36.57" height="25.95"></rect><rect class="cls-29" x="513.04" y="483.46" width="36.57" height="25.95"></rect><rect class="cls-29" x="433.06" y="512.32" width="36.57" height="25.95"></rect><rect class="cls-29" x="473.05" y="512.32" width="36.57" height="25.95"></rect><rect class="cls-29" x="513.04" y="512.32" width="36.57" height="25.95"></rect><path class="cls-30" d="M854.79,429.63h0c33.51,0,60.68,28.48,60.68,63.6v82.23H794.1V493.23C794.1,458.11,821.27,429.63,854.79,429.63Z"></path><path class="cls-16" d="M852.08,424h0c36.45,0,66,31,66,69.17v82.32h-5.31V493.23c0-35.12-27.18-63.6-60.69-63.6h0c-33.52,0-60.69,28.48-60.69,63.6v82.23h-5.31V493.14C786.08,454.94,815.63,424,852.08,424Z"></path><path class="cls-28" d="M854.79,424h0c36.45,0,66,31,66,69.17v82.32h-5.31V493.23c0-35.12-27.17-63.6-60.68-63.6h0c-33.52,0-60.69,28.48-60.69,63.6v82.23h-5.31V493.14C788.79,454.94,818.34,424,854.79,424Z"></path><path class="cls-31" d="M460.57,370.07H419.48V324.4h41.09Zm-34.43-6.67H453.9V331.06H426.14Z"></path><path class="cls-32" d="M458.74,370.07H417.65V324.4h41.09Zm-34.42-6.67h27.75V331.06H424.32Z"></path><path class="cls-33" d="M455.41,328.72v-1H421v35.11A104,104,0,0,0,455.41,328.72Z"></path><path class="cls-34" d="M421,362.84v3.9h34.43v-38A104,104,0,0,1,421,362.84Z"></path><path class="cls-31" d="M531.51,370.07H490.42V324.4h41.09Zm-34.42-6.67h27.75V331.06H497.09Z"></path><path class="cls-32" d="M529.68,370.07H488.59V324.4h41.09Zm-34.42-6.67H523V331.06H495.26Z"></path><path class="cls-33" d="M526.35,328.72v-1H491.93v35.11A104,104,0,0,0,526.35,328.72Z"></path><path class="cls-34" d="M491.93,362.84v3.9h34.42v-38A104,104,0,0,1,491.93,362.84Z"></path><path class="cls-31" d="M602.45,370.07H561.36V324.4h41.09ZM568,363.4h27.75V331.06H568Z"></path><path class="cls-32" d="M600.62,370.07H559.53V324.4h41.09ZM566.2,363.4H594V331.06H566.2Z"></path><path class="cls-33" d="M597.29,328.72v-1H562.87v35.11A103.86,103.86,0,0,0,597.29,328.72Z"></path><path class="cls-34" d="M562.87,362.84v3.9h34.42v-38A103.86,103.86,0,0,1,562.87,362.84Z"></path><path class="cls-31" d="M673.39,370.07H632.3V324.4h41.09ZM639,363.4h27.76V331.06H639Z"></path><path class="cls-32" d="M671.57,370.07H630.48V324.4h41.09Zm-34.43-6.67H664.9V331.06H637.14Z"></path><path class="cls-33" d="M668.23,328.72v-1H633.81v35.11A103.86,103.86,0,0,0,668.23,328.72Z"></path><path class="cls-34" d="M633.81,362.84v3.9h34.42v-38A103.86,103.86,0,0,1,633.81,362.84Z"></path><path class="cls-31" d="M744.33,370.07H703.24V324.4h41.09Zm-34.42-6.67h27.76V331.06H709.91Z"></path><path class="cls-32" d="M742.51,370.07H701.42V324.4h41.09Zm-34.43-6.67h27.76V331.06H708.08Z"></path><path class="cls-33" d="M739.17,328.72v-1H704.75v35.11A103.86,103.86,0,0,0,739.17,328.72Z"></path><path class="cls-34" d="M704.75,362.84v3.9h34.42v-38A103.86,103.86,0,0,1,704.75,362.84Z"></path><path class="cls-35" d="M831.71,370.07H790.62V324.4h41.09Zm-34.42-6.67H825V331.06H797.29Z"></path><path class="cls-33" d="M828.38,328.72v-1H794v35.11A104,104,0,0,0,828.38,328.72Z"></path><path class="cls-34" d="M794,362.84v3.9h34.43v-38A104,104,0,0,1,794,362.84Z"></path><path class="cls-35" d="M909.68,370.07H868.59V324.4h41.09Zm-34.42-6.67H903V331.06H875.26Z"></path><path class="cls-33" d="M906.35,328.72v-1H871.93v35.11A104.05,104.05,0,0,0,906.35,328.72Z"></path><path class="cls-34" d="M871.93,362.84v3.9h34.42v-38A104.05,104.05,0,0,1,871.93,362.84Z"></path><rect class="cls-16" x="383.12" y="385.66" width="367.69" height="12.8"></rect><rect class="cls-19" x="750.81" y="385.66" width="205.25" height="12.8"></rect><rect class="cls-16" x="382.01" y="293.47" width="367.69" height="12.8"></rect><rect class="cls-19" x="749.7" y="293.47" width="205.25" height="12.8"></rect><rect class="cls-16" x="394.92" y="575.62" width="357.2" height="10.06"></rect><rect class="cls-19" x="752.12" y="575.62" width="198.66" height="10.06"></rect><path class="cls-3" d="M494.57,644.94H133.65a4.63,4.63,0,0,1-4.61-4.61h0a4.62,4.62,0,0,1,4.61-4.6H494.57a4.62,4.62,0,0,1,4.61,4.6h0A4.62,4.62,0,0,1,494.57,644.94Z"></path><path class="cls-3" d="M630.55,749.59h-95a4.61,4.61,0,0,1-4.6-4.6h0a4.62,4.62,0,0,1,4.6-4.61h95a4.63,4.63,0,0,1,4.61,4.61h0A4.62,4.62,0,0,1,630.55,749.59Z"></path><path class="cls-36" d="M130.81,603.08h9.81V529.6h-.9c-2.87,0-8.91,19.88-8.91,25.62Z"></path><path class="cls-37" d="M134.2,584.55h-3.39V557.82h0a6.81,6.81,0,0,1,6.81,6.81v16.49A3.43,3.43,0,0,1,134.2,584.55Z"></path><path class="cls-38" d="M277.87,603.08H140.62V529.6c3.91-50.15,9.41-53.94,25.8-53.94H270.27c4.2,0,7.6,3.92,7.6,8.75Z"></path><rect class="cls-39" x="137.62" y="564.12" width="140.24" height="5.53"></rect><rect class="cls-40" x="120.96" y="603.08" width="381.59" height="16.17" rx="8.09"></rect><path class="cls-41" d="M282.74,484.56h46.35a4.87,4.87,0,0,1,4.87,4.87V603.08a0,0,0,0,1,0,0H277.87a0,0,0,0,1,0,0V489.43A4.87,4.87,0,0,1,282.74,484.56Z"></path><rect class="cls-42" x="333.96" y="496.44" width="159.67" height="106.65"></rect><rect class="cls-39" x="333.96" y="564.12" width="159.67" height="5.53"></rect><rect class="cls-43" x="195.66" y="469.52" width="27.17" height="6.14"></rect><path class="cls-37" d="M204.48,452.86h8.76a6.06,6.06,0,0,1,6.06,6.06v10.6H198.42v-10.6A6.06,6.06,0,0,1,204.48,452.86Z"></path><polygon class="cls-44" points="156.07 529.6 166.03 482.11 204.05 482.11 204.05 529.6 156.07 529.6"></polygon><rect class="cls-44" x="213.29" y="482.11" width="56.68" height="47.49"></rect><path class="cls-44" d="M149.49,525.83l8.66-37.4c.84-3.6-1.52-7.14-4.76-7.14h-2.92c-4.91,6.4-7.64,19.92-9.85,48.31h4.61A4.58,4.58,0,0,0,149.49,525.83Z"></path><path d="M241.15,603.08a38.23,38.23,0,0,0-75.05,10.29,39.45,39.45,0,0,0,.45,5.89h8.2a30.16,30.16,0,1,1,59.75-5.89,30.88,30.88,0,0,1-.58,5.89h8.19a39.45,39.45,0,0,0,.45-5.89A38.44,38.44,0,0,0,241.15,603.08Z"></path><path d="M476.19,603.08a38.23,38.23,0,0,0-74.59,16.18h8.19a30.88,30.88,0,0,1-.58-5.89A30.17,30.17,0,1,1,469,619.26h8.19a38.44,38.44,0,0,0-1-16.18Z"></path><circle class="cls-45" cx="204.33" cy="613.37" r="30.17" transform="translate(-373.87 324.14) rotate(-45)"></circle><circle class="cls-46" cx="439.38" cy="613.37" r="30.17" transform="translate(-305.03 490.34) rotate(-45)"></circle><circle class="cls-47" cx="204.33" cy="613.37" r="15.1"></circle><circle class="cls-47" cx="439.38" cy="613.37" r="15.1"></circle><path class="cls-48" d="M208.27,481.31V568c0,1.16-.09,2.37,0,3.54a.75.75,0,0,1,0,.15.59.59,0,1,0,1.18,0V485c0-1.17.09-2.38,0-3.54a.86.86,0,0,1,0-.16.59.59,0,0,0-1.18,0Z"></path><path class="cls-48" d="M154,533.17v60.05a22.25,22.25,0,0,0,0,2.45v.11c0,.54,1.17.54,1.17,0v-60a22.25,22.25,0,0,0,0-2.45v-.11c0-.54-1.17-.54-1.17,0Z"></path><path class="cls-49" d="M202.3,543.82H192.07a1.75,1.75,0,0,1-1.75-1.74h0a1.75,1.75,0,0,1,1.75-1.75H202.3a1.75,1.75,0,0,1,1.75,1.75h0A1.75,1.75,0,0,1,202.3,543.82Z"></path><path class="cls-49" d="M268.21,543.82H258a1.74,1.74,0,0,1-1.75-1.74h0a1.75,1.75,0,0,1,1.75-1.75h10.22a1.75,1.75,0,0,1,1.75,1.75h0A1.74,1.74,0,0,1,268.21,543.82Z"></path><ellipse class="cls-50" cx="208.86" cy="461.19" rx="4.66" ry="5.03"></ellipse><rect class="cls-50" x="207.72" y="461.63" width="2.27" height="7.88"></rect><path d="M209.49,613.37a5.16,5.16,0,1,0-5.16,5.16A5.15,5.15,0,0,0,209.49,613.37Z"></path><path d="M211.64,608c.8-.8,1-1.88.5-2.4s-1.61-.31-2.41.5-1,1.88-.5,2.4S210.83,608.79,211.64,608Z"></path><path d="M198.93,620.69c.8-.81,1-1.88.5-2.41s-1.6-.3-2.4.5-1,1.88-.51,2.41S198.13,621.49,198.93,620.69Z"></path><path d="M209.73,620.69c.8.8,1.88,1,2.41.5s.3-1.6-.5-2.41-1.88-1-2.41-.5S208.93,619.88,209.73,620.69Z"></path><path d="M197,608c.8.81,1.88,1,2.4.5s.3-1.6-.5-2.4-1.88-1-2.41-.5S196.22,607.18,197,608Z"></path><circle cx="439.38" cy="613.37" r="5.15"></circle><path d="M446.68,608c.8-.8,1-1.88.5-2.4s-1.6-.31-2.4.5-1,1.88-.51,2.4S445.88,608.79,446.68,608Z"></path><path d="M434,620.69c.8-.81,1-1.88.5-2.41s-1.61-.3-2.41.5-1,1.88-.5,2.41S433.17,621.49,434,620.69Z"></path><path d="M444.78,620.69c.8.8,1.88,1,2.4.5s.3-1.6-.5-2.41-1.88-1-2.41-.5S444,619.88,444.78,620.69Z"></path><path d="M432.07,608c.8.81,1.88,1,2.41.5s.3-1.6-.5-2.4-1.88-1-2.41-.5S431.27,607.18,432.07,608Z"></path><rect class="cls-51" x="284.52" y="489.7" width="42.5" height="2.6" rx="1.29"></rect><rect class="cls-51" x="284.52" y="494.44" width="42.5" height="2.6" rx="1.29"></rect><rect class="cls-51" x="284.52" y="499.17" width="42.5" height="2.6" rx="1.29"></rect><rect class="cls-51" x="284.52" y="503.9" width="42.5" height="2.6" rx="1.29"></rect><rect class="cls-51" x="284.52" y="508.64" width="42.5" height="2.6" rx="1.29"></rect><rect class="cls-51" x="284.52" y="546.5" width="42.5" height="2.6" rx="1.29"></rect><rect class="cls-51" x="284.52" y="551.23" width="42.5" height="2.6" rx="1.29"></rect><rect class="cls-51" x="284.52" y="555.96" width="42.5" height="2.6" rx="1.29"></rect><rect class="cls-51" x="284.52" y="560.7" width="42.5" height="2.6" rx="1.29"></rect><rect class="cls-51" x="284.52" y="565.43" width="42.5" height="2.6" rx="1.29"></rect><rect class="cls-51" x="284.52" y="570.16" width="42.5" height="2.6" rx="1.29"></rect><rect class="cls-51" x="284.52" y="574.89" width="42.5" height="2.6" rx="1.29"></rect><rect class="cls-51" x="284.52" y="579.63" width="42.5" height="2.6" rx="1.29"></rect><rect class="cls-51" x="284.52" y="584.36" width="42.5" height="2.6" rx="1.29"></rect><rect class="cls-51" x="284.52" y="589.09" width="42.5" height="2.6" rx="1.29"></rect><rect class="cls-51" x="284.52" y="593.83" width="42.5" height="2.6" rx="1.29"></rect><rect class="cls-51" x="284.52" y="598.56" width="42.5" height="2.6" rx="1.29"></rect><circle class="cls-52" cx="293.41" cy="526.68" r="7.85"></circle><circle class="cls-51" cx="293.41" cy="526.68" r="4.97"></circle><circle class="cls-53" cx="318.19" cy="526.68" r="7.85"></circle><path class="cls-51" d="M323.16,526.68a5,5,0,1,0-5,5A5,5,0,0,0,323.16,526.68Z"></path><rect class="cls-51" x="292.12" y="538.59" width="4.32" height="4.32"></rect><rect class="cls-51" x="300.23" y="538.59" width="4.32" height="4.32"></rect><rect class="cls-51" x="308.34" y="538.59" width="4.32" height="4.32"></rect><rect class="cls-51" x="316.45" y="538.59" width="4.32" height="4.32"></rect><rect class="cls-54" x="339.82" y="502.27" width="73.97" height="50.26"></rect><rect class="cls-54" x="339.82" y="556.75" width="56.52" height="43.59"></rect><rect class="cls-54" x="417.49" y="502.27" width="71.56" height="50.26"></rect><path class="cls-55" d="M375.72,543.82a2.68,2.68,0,0,0-2.61,2.12h5.23A2.68,2.68,0,0,0,375.72,543.82Z"></path><path class="cls-56" d="M375.72,549.17a2.66,2.66,0,0,0,2.59-2h-5.17A2.66,2.66,0,0,0,375.72,549.17Z"></path><path class="cls-57" d="M378.34,545.94h-5.23a2.6,2.6,0,0,0-.06.56,2.83,2.83,0,0,0,.09.65h5.17a2.83,2.83,0,0,0,.09-.65A2.6,2.6,0,0,0,378.34,545.94Z"></path><path class="cls-58" d="M378.34,545.94h-5.23a2.6,2.6,0,0,0-.06.56,2.83,2.83,0,0,0,.09.65h5.17a2.83,2.83,0,0,0,.09-.65A2.6,2.6,0,0,0,378.34,545.94Z"></path><path class="cls-59" d="M366.68,592.45a2.68,2.68,0,0,0-2.62,2.12h5.23A2.68,2.68,0,0,0,366.68,592.45Z"></path><path class="cls-60" d="M366.68,597.8a2.66,2.66,0,0,0,2.58-2h-5.17A2.66,2.66,0,0,0,366.68,597.8Z"></path><path class="cls-61" d="M369.29,594.57h-5.23a2.51,2.51,0,0,0-.06.55,2.68,2.68,0,0,0,.09.65h5.17a2.68,2.68,0,0,0,.09-.65A2.51,2.51,0,0,0,369.29,594.57Z"></path><path class="cls-62" d="M369.29,594.57h-5.23a2.51,2.51,0,0,0-.06.55,2.68,2.68,0,0,0,.09.65h5.17a2.68,2.68,0,0,0,.09-.65A2.51,2.51,0,0,0,369.29,594.57Z"></path><path class="cls-63" d="M454.47,543.82a2.68,2.68,0,0,0-2.61,2.12h5.23A2.68,2.68,0,0,0,454.47,543.82Z"></path><path class="cls-64" d="M454.47,549.17a2.67,2.67,0,0,0,2.59-2h-5.17A2.66,2.66,0,0,0,454.47,549.17Z"></path><path class="cls-65" d="M457.09,545.94h-5.23a2.6,2.6,0,0,0-.06.56,2.83,2.83,0,0,0,.09.65h5.17a2.83,2.83,0,0,0,.09-.65A2.6,2.6,0,0,0,457.09,545.94Z"></path><path class="cls-66" d="M457.09,545.94h-5.23a2.6,2.6,0,0,0-.06.56,2.83,2.83,0,0,0,.09.65h5.17a2.83,2.83,0,0,0,.09-.65A2.6,2.6,0,0,0,457.09,545.94Z"></path><path class="cls-67" d="M301,458.89h42.86a0,0,0,0,1,0,0v21.94a7.38,7.38,0,0,1-7.38,7.38H315.22A14.22,14.22,0,0,1,301,474V458.89A0,0,0,0,1,301,458.89Z"></path><path class="cls-68" d="M462.13,488.22V466.13h7.41v-3.81H320.76l-19.49,29.57H469.54v-3.67Zm-139.7,0H308.34l14.09-22.09Zm16.86,0H327.23V466.13h12.06Zm16.87,0H344.09V466.13h12.07Zm16.86,0H361V466.13H373Zm16.86,0H377.82V466.13h12.06Zm16.87,0H394.68V466.13h12.07Zm16.86,0H411.55V466.13h12.06Zm16.86,0H428.41V466.13h12.06Zm16.87,0H445.27V466.13h12.07Z"></path><rect class="cls-69" x="452.51" y="479.87" width="18.16" height="12.37"></rect><path class="cls-48" d="M482.94,469.75H446.23l-6.85,26.69h50.41Zm-1.82,5.67,4.32,16.82H467.75ZM477.74,474l-13.22,16.63L451.3,474h26.44ZM448,475.54l13.27,16.7H443.73Z"></path><rect class="cls-70" x="298.38" y="454.16" width="45.48" height="4.73"></rect><path class="cls-71" d="M950,554.23h-5.15V515.68h.47c1.51,0,4.68,10.44,4.68,13.45Z"></path><path class="cls-37" d="M948.23,544.51H950v-14h0a3.57,3.57,0,0,0-3.58,3.57v8.65A1.8,1.8,0,0,0,948.23,544.51Z"></path><path class="cls-72" d="M872.86,554.23h72V515.68c-2.05-26.3-4.94-28.29-13.53-28.29H876.85c-2.2,0-4,2.05-4,4.59Z"></path><rect class="cls-39" x="872.86" y="533.8" width="73.57" height="2.9" transform="translate(1819.3 1070.49) rotate(180)"></rect><path class="cls-73" d="M951.23,554.23H799.66v8.49H951.23a4.25,4.25,0,1,0,0-8.49Z"></path><path class="cls-74" d="M843.44,492.06h29.42a0,0,0,0,1,0,0v57.3a4.87,4.87,0,0,1-4.87,4.87H848.31a4.87,4.87,0,0,1-4.87-4.87v-57.3A0,0,0,0,1,843.44,492.06Z" transform="translate(1716.3 1046.29) rotate(180)"></path><rect class="cls-75" x="799.66" y="498.29" width="43.78" height="55.95"></rect><rect class="cls-39" x="799.66" y="533.8" width="43.78" height="2.9"></rect><rect class="cls-76" x="901.74" y="484.17" width="14.25" height="3.22" transform="translate(1817.73 971.56) rotate(180)"></rect><path class="cls-37" d="M909.06,475.43h0a5.47,5.47,0,0,0-5.47,5.48v3.26h10.95v-3.26A5.48,5.48,0,0,0,909.06,475.43Z"></path><polygon class="cls-44" points="936.75 515.68 931.53 490.77 911.59 490.77 911.59 515.68 936.75 515.68"></polygon><rect class="cls-44" x="877.01" y="490.77" width="29.73" height="24.91" transform="translate(1783.75 1006.46) rotate(180)"></rect><path class="cls-44" d="M940.21,513.71l-4.54-19.62c-.44-1.89.79-3.75,2.49-3.75h1.53c2.58,3.36,4,10.46,5.17,25.34h-2.42A2.39,2.39,0,0,1,940.21,513.71Z"></path><path d="M892.13,554.23a20.05,20.05,0,0,1,39.36,5.4,21,21,0,0,1-.23,3.09H927a15.82,15.82,0,1,0-31,0h-4.3a21,21,0,0,1-.23-3.09A20.06,20.06,0,0,1,892.13,554.23Z"></path><path d="M807.45,554.23a20.1,20.1,0,0,0-7.79-11v5.58A15.92,15.92,0,0,1,804,559.63a15.72,15.72,0,0,1-.31,3.09H808a21,21,0,0,0,.23-3.09A20.06,20.06,0,0,0,807.45,554.23Z"></path><circle class="cls-77" cx="911.44" cy="559.63" r="15.83"></circle><path class="cls-78" d="M799.66,548.8v21.66a15.76,15.76,0,0,0,0-21.66Z"></path><circle class="cls-47" cx="911.44" cy="559.63" r="7.92" transform="translate(157.38 1318.11) rotate(-76.72)"></circle><path class="cls-48" d="M909.37,490.36v45.46c0,.61,0,1.25,0,1.86v.08a.31.31,0,1,1-.61,0V492.29c0-.61,0-1.24,0-1.85v-.08a.31.31,0,1,1,.61,0Z"></path><path class="cls-48" d="M937.85,517.56v31.5a11.1,11.1,0,0,1,0,1.29v0c0,.29-.61.29-.61,0V518.9a10.93,10.93,0,0,1,0-1.28v-.06c0-.29.61-.29.61,0Z"></path><path class="cls-49" d="M912.51,523.15h5.36a.92.92,0,0,0,.92-.92h0a.92.92,0,0,0-.92-.92h-5.36a.92.92,0,0,0-.92.92h0A.92.92,0,0,0,912.51,523.15Z"></path><path class="cls-49" d="M877.93,523.15h5.36a.92.92,0,0,0,.92-.92h0a.92.92,0,0,0-.92-.92h-5.36a.92.92,0,0,0-.92.92h0A.92.92,0,0,0,877.93,523.15Z"></path><ellipse class="cls-50" cx="909.06" cy="479.8" rx="2.45" ry="2.64"></ellipse><rect class="cls-50" x="908.47" y="480.03" width="1.19" height="4.14" transform="translate(1818.13 964.2) rotate(180)"></rect><circle cx="911.44" cy="559.63" r="2.7"></circle><path d="M907.61,556.8c-.42-.42-.54-1-.26-1.26s.84-.16,1.26.26.54,1,.26,1.27S908,557.23,907.61,556.8Z"></path><path d="M914.27,563.47c-.42-.42-.54-1-.26-1.26s.84-.16,1.26.26.54,1,.27,1.26S914.69,563.89,914.27,563.47Z"></path><path d="M908.61,563.47c-.42.42-1,.54-1.26.26s-.16-.84.26-1.26,1-.54,1.26-.26S909,563.05,908.61,563.47Z"></path><path d="M915.27,556.8c-.42.43-1,.54-1.26.27s-.16-.84.26-1.27,1-.53,1.27-.26S915.69,556.38,915.27,556.8Z"></path><path class="cls-51" d="M847.76,496.12H868.7a.68.68,0,0,0,.68-.68h0a.68.68,0,0,0-.68-.68H847.76a.68.68,0,0,0-.68.68h0A.68.68,0,0,0,847.76,496.12Z"></path><path class="cls-51" d="M847.76,498.6H868.7a.68.68,0,0,0,.68-.68h0a.69.69,0,0,0-.68-.68H847.76a.69.69,0,0,0-.68.68h0A.68.68,0,0,0,847.76,498.6Z"></path><path class="cls-51" d="M847.76,501.09H868.7a.69.69,0,0,0,.68-.69h0a.69.69,0,0,0-.68-.68H847.76a.69.69,0,0,0-.68.68h0A.69.69,0,0,0,847.76,501.09Z"></path><path class="cls-51" d="M847.76,503.57H868.7a.69.69,0,0,0,.68-.68h0a.68.68,0,0,0-.68-.68H847.76a.68.68,0,0,0-.68.68h0A.69.69,0,0,0,847.76,503.57Z"></path><path class="cls-51" d="M847.76,506.05H868.7a.68.68,0,0,0,.68-.68h0a.68.68,0,0,0-.68-.68H847.76a.68.68,0,0,0-.68.68h0A.68.68,0,0,0,847.76,506.05Z"></path><path class="cls-51" d="M847.76,525.91H868.7a.68.68,0,0,0,.68-.68h0a.69.69,0,0,0-.68-.68H847.76a.69.69,0,0,0-.68.68h0A.68.68,0,0,0,847.76,525.91Z"></path><path class="cls-51" d="M847.76,528.4H868.7a.69.69,0,0,0,.68-.69h0a.69.69,0,0,0-.68-.68H847.76a.69.69,0,0,0-.68.68h0A.69.69,0,0,0,847.76,528.4Z"></path><path class="cls-51" d="M847.76,530.88H868.7a.69.69,0,0,0,.68-.68h0a.68.68,0,0,0-.68-.68H847.76a.68.68,0,0,0-.68.68h0A.69.69,0,0,0,847.76,530.88Z"></path><path class="cls-51" d="M847.76,533.36H868.7a.68.68,0,0,0,.68-.68h0a.68.68,0,0,0-.68-.68H847.76a.68.68,0,0,0-.68.68h0A.68.68,0,0,0,847.76,533.36Z"></path><path class="cls-51" d="M847.76,535.84H868.7a.68.68,0,0,0,.68-.68h0a.69.69,0,0,0-.68-.68H847.76a.69.69,0,0,0-.68.68h0A.68.68,0,0,0,847.76,535.84Z"></path><path class="cls-51" d="M847.76,538.33H868.7a.69.69,0,0,0,.68-.68h0a.69.69,0,0,0-.68-.69H847.76a.69.69,0,0,0-.68.69h0A.69.69,0,0,0,847.76,538.33Z"></path><path class="cls-51" d="M847.76,540.81H868.7a.69.69,0,0,0,.68-.68h0a.68.68,0,0,0-.68-.68H847.76a.68.68,0,0,0-.68.68h0A.69.69,0,0,0,847.76,540.81Z"></path><path class="cls-51" d="M847.76,543.29H868.7a.68.68,0,0,0,.68-.68h0a.68.68,0,0,0-.68-.68H847.76a.68.68,0,0,0-.68.68h0A.68.68,0,0,0,847.76,543.29Z"></path><path class="cls-51" d="M847.76,545.78H868.7a.69.69,0,0,0,.68-.69h0a.69.69,0,0,0-.68-.68H847.76a.69.69,0,0,0-.68.68h0A.69.69,0,0,0,847.76,545.78Z"></path><path class="cls-51" d="M847.76,548.26H868.7a.69.69,0,0,0,.68-.68h0a.69.69,0,0,0-.68-.69H847.76a.69.69,0,0,0-.68.69h0A.69.69,0,0,0,847.76,548.26Z"></path><path class="cls-51" d="M847.76,550.74H868.7a.68.68,0,0,0,.68-.68h0a.68.68,0,0,0-.68-.68H847.76a.68.68,0,0,0-.68.68h0A.68.68,0,0,0,847.76,550.74Z"></path><path class="cls-51" d="M847.76,553.22H868.7a.68.68,0,0,0,.68-.68h0a.69.69,0,0,0-.68-.68H847.76a.69.69,0,0,0-.68.68h0A.68.68,0,0,0,847.76,553.22Z"></path><circle class="cls-79" cx="864.71" cy="514.16" r="4.12"></circle><path class="cls-51" d="M862.1,514.16a2.61,2.61,0,1,1,2.61,2.6A2.61,2.61,0,0,1,862.1,514.16Z"></path><circle class="cls-80" cx="851.71" cy="514.16" r="4.12"></circle><path class="cls-51" d="M849.11,514.16a2.61,2.61,0,1,1,2.6,2.6A2.6,2.6,0,0,1,849.11,514.16Z"></path><rect class="cls-51" x="863.12" y="520.4" width="2.26" height="2.26" transform="translate(1728.51 1043.06) rotate(180)"></rect><rect class="cls-51" x="858.87" y="520.4" width="2.26" height="2.26" transform="translate(1720 1043.06) rotate(180)"></rect><rect class="cls-51" x="854.62" y="520.4" width="2.26" height="2.26" transform="translate(1711.49 1043.06) rotate(180)"></rect><rect class="cls-51" x="850.36" y="520.4" width="2.26" height="2.26" transform="translate(1702.99 1043.06) rotate(180)"></rect><rect class="cls-54" x="801.56" y="501.35" width="38.8" height="26.37" transform="translate(1641.93 1029.06) rotate(180)"></rect><rect class="cls-54" x="810.72" y="529.93" width="29.65" height="22.87" transform="translate(1651.08 1082.72) rotate(180)"></rect><path class="cls-81" d="M821.53,523.15a1.39,1.39,0,0,1,1.37,1.11h-2.74A1.39,1.39,0,0,1,821.53,523.15Z"></path><path class="cls-82" d="M821.53,526a1.38,1.38,0,0,1-1.35-1.06h2.71A1.4,1.4,0,0,1,821.53,526Z"></path><path class="cls-83" d="M820.16,524.26h2.74a1.36,1.36,0,0,1,0,.29,1.86,1.86,0,0,1,0,.34h-2.71a1.27,1.27,0,0,1,0-.34A1.36,1.36,0,0,1,820.16,524.26Z"></path><path class="cls-84" d="M820.16,524.26h2.74a1.36,1.36,0,0,1,0,.29,1.86,1.86,0,0,1,0,.34h-2.71a1.27,1.27,0,0,1,0-.34A1.36,1.36,0,0,1,820.16,524.26Z"></path><path class="cls-85" d="M826.28,548.66a1.4,1.4,0,0,1,1.37,1.11h-2.74A1.39,1.39,0,0,1,826.28,548.66Z"></path><path class="cls-86" d="M826.28,551.46a1.4,1.4,0,0,1-1.36-1.06h2.71A1.39,1.39,0,0,1,826.28,551.46Z"></path><path class="cls-87" d="M824.91,549.77h2.74a1.36,1.36,0,0,1,0,.29,1.27,1.27,0,0,1,0,.34h-2.71a1.27,1.27,0,0,1,0-.34A1.35,1.35,0,0,1,824.91,549.77Z"></path><path class="cls-88" d="M824.91,549.77h2.74a1.36,1.36,0,0,1,0,.29,1.27,1.27,0,0,1,0,.34h-2.71a1.27,1.27,0,0,1,0-.34A1.35,1.35,0,0,1,824.91,549.77Z"></path><path class="cls-89" d="M852.46,478.6h.88a7.38,7.38,0,0,1,7.38,7.38v8a0,0,0,0,1,0,0H838.25a0,0,0,0,1,0,0v-1.17A14.22,14.22,0,0,1,852.46,478.6Z" transform="translate(1698.97 972.57) rotate(180)"></path><path class="cls-68" d="M799.66,482.39h3.08V494h-3.08v1.92h60.93l-10.23-15.51h-50.7Zm49.83,0L856.88,494h-7.39Zm-8.85,0H847V494h-6.33Zm-8.84,0h6.32V494H831.8Zm-8.85,0h6.33V494H823Zm-8.85,0h6.33V494H814.1Zm-8.84,0h6.33V494h-6.33Z"></path><rect class="cls-90" x="838.25" y="476.11" width="23.86" height="2.48" transform="translate(1700.35 954.71) rotate(180)"></rect><rect class="cls-91" x="805.82" y="440.71" width="11.22" height="11.48" transform="translate(1622.87 892.89) rotate(180)"></rect><path class="cls-3" d="M452.44,715.33H349a4.63,4.63,0,0,1-4.61-4.61h0a4.62,4.62,0,0,1,4.61-4.6H452.44a4.61,4.61,0,0,1,4.6,4.6h0A4.62,4.62,0,0,1,452.44,715.33Z"></path><path class="cls-3" d="M774.83,673.66H716a4.62,4.62,0,0,1-4.61-4.6h0a4.62,4.62,0,0,1,4.61-4.61h58.83a4.62,4.62,0,0,1,4.61,4.61h0A4.62,4.62,0,0,1,774.83,673.66Z"></path><path class="cls-3" d="M731,627.71H650.14a4.62,4.62,0,0,1-4.6-4.61h0a4.61,4.61,0,0,1,4.6-4.6H731a4.61,4.61,0,0,1,4.6,4.6h0A4.62,4.62,0,0,1,731,627.71Z"></path><path class="cls-3" d="M894,785H851.69a4.62,4.62,0,0,1-4.61-4.6h0a4.62,4.62,0,0,1,4.61-4.61H894a4.63,4.63,0,0,1,4.61,4.61h0A4.62,4.62,0,0,1,894,785Z"></path><path class="cls-3" d="M982.49,611.29H879a4.62,4.62,0,0,1-4.61-4.6h0a4.63,4.63,0,0,1,4.61-4.61H982.49a4.62,4.62,0,0,1,4.6,4.61h0A4.61,4.61,0,0,1,982.49,611.29Z"></path><rect class="cls-92" x="304.68" y="184.47" width="276.76" height="19.53"></rect><rect class="cls-93" x="402.15" y="306.27" width="534.01" height="19.53"></rect><rect class="cls-94" x="402.15" y="397.93" width="534.01" height="19.53"></rect><path class="cls-30" d="M796.06,589.34l1-.16c-2.8-17.67-5.14-36.62-3.42-55.47,1.86-20.4,8.48-38.13,19.16-51.28l-.77-.63c-10.81,13.3-17.51,31.22-19.39,51.82C790.9,552.58,793.26,571.6,796.06,589.34Z"></path><path class="cls-95" d="M779.85,557c-3.73,3.89-7.76,9.18-5.61,14.12a87.89,87.89,0,0,0,60.84-39.69c3.77-6,6.83-12.61,7.73-19.65s-.56-14.58-5-20.09-12.18-8.56-19-6.51c-8.26,2.49-12.89,11.14-15.81,19.25-3.79,10.51-5.43,21-7.14,32C794.52,544.9,785.51,551.12,779.85,557Z"></path><path class="cls-96" d="M794.62,699.43c-.37-2.65-.69-5.36-1-8.11a52.75,52.75,0,0,0,33-3.23c-.5,3.27-1,6.47-1.63,9.56A39,39,0,0,1,794.62,699.43Z"></path><path class="cls-97" d="M813.47,717.1a31.6,31.6,0,0,0,7-1.6c-3.48,10.34-8.16,18.59-14.62,23.74-3.7-6.85-6.48-15.23-8.56-24.7A31.76,31.76,0,0,0,813.47,717.1Z"></path><path class="cls-98" d="M793.64,691.32c-3.89-36.78-1.69-82.17-2-118.88l46.37-2.9c-6.46,34.16-5.83,81.59-11.37,118.55A52.75,52.75,0,0,1,793.64,691.32Z"></path><path class="cls-99" d="M825,697.65c-.51,2.61-1,5.14-1.64,7.6a41.81,41.81,0,0,1-27.77.58c-.35-2.09-.68-4.23-1-6.4A39,39,0,0,0,825,697.65Z"></path><path class="cls-100" d="M823.36,705.25q-1.3,5.4-2.92,10.25a31.1,31.1,0,0,1-23.18-1c-.62-2.81-1.17-5.72-1.67-8.71A41.81,41.81,0,0,0,823.36,705.25Z"></path><path class="cls-101" d="M840.47,691.23c-10.22-36.91-17.05-85.65-26.32-120.2l55-3.44c-.8,35,3.78,83.43,4.18,120.75A52.76,52.76,0,0,1,840.47,691.23Z"></path><path class="cls-102" d="M860.71,717.1a31.65,31.65,0,0,0,12-3.88c-.92,12.78-3,22.55-6.91,27.49-6.65-4.34-12.2-13.08-17-24.62A31.55,31.55,0,0,0,860.71,717.1Z"></path><path class="cls-103" d="M873.31,697.08c0,2.42-.07,4.79-.14,7.09a41.84,41.84,0,0,1-28,2.36q-1.12-3.25-2.19-6.7A39,39,0,0,0,873.31,697.08Z"></path><path class="cls-104" d="M873.3,688.34c0,3,0,5.91,0,8.74A39,39,0,0,1,843,699.83q-1.29-4.17-2.52-8.6A52.76,52.76,0,0,0,873.3,688.34Z"></path><path class="cls-105" d="M873.17,704.17c-.1,3.15-.25,6.18-.46,9.05a31.14,31.14,0,0,1-23.92,2.87q-1.87-4.51-3.61-9.56A41.84,41.84,0,0,0,873.17,704.17Z"></path><path class="cls-106" d="M824.13,459.4a11.41,11.41,0,0,1-.88-1.87,7,7,0,0,0-1.6-2.07,1.46,1.46,0,0,0,1.68.09,2.19,2.19,0,0,0,.94-1.44,5.2,5.2,0,0,0,0-1.76c-.09-.65-.31-1.4-.93-1.63a1.34,1.34,0,0,0-1.36.37,3.13,3.13,0,0,0-.69,1.28,6.89,6.89,0,0,0-3.86-5.2,11.09,11.09,0,0,0-4.64-.88,31.42,31.42,0,0,0-4.11.19,4.87,4.87,0,0,1,1.59-3.31,9.08,9.08,0,0,1,7.5-1.62c3.84.71,7.48,3.37,8.5,7.14.82,3-.06,6.13-.46,9.2-.11.87-.18,1.75-.22,2.62A3.13,3.13,0,0,1,824.13,459.4Z"></path><path class="cls-19" d="M810.39,456.94a4.78,4.78,0,0,1-3.48,1.34,11.53,11.53,0,0,0,2.14-8,11.32,11.32,0,0,1-.38-3.84,31.42,31.42,0,0,1,4.11-.19,11.09,11.09,0,0,1,4.64.88,6.89,6.89,0,0,1,3.86,5.2,3.13,3.13,0,0,1,.69-1.28,1.34,1.34,0,0,1,1.36-.37c.62.23.84,1,.93,1.63a5.2,5.2,0,0,1,0,1.76,2.19,2.19,0,0,1-.94,1.44,1.46,1.46,0,0,1-1.68-.09,7,7,0,0,1,1.6,2.07,11.41,11.41,0,0,0,.88,1.87,3.13,3.13,0,0,0,1.45,1.11,29.66,29.66,0,0,0,2.62,13.33l-5.73,3.56a57.89,57.89,0,0,0-1.14-10.6,4.17,4.17,0,0,0-1.21-2.26,3.28,3.28,0,0,0-2.82-.38c-1,.24-1.84.71-2.78,1a4.5,4.5,0,0,1-4-.42,4.25,4.25,0,0,1-1.43-3.8A12.55,12.55,0,0,1,810.39,456.94Z"></path><path class="cls-107" d="M824.25,473.19c6.88-1.38,13.62,4.2,18.53,10s8.33,13,11.38,20.34c1,2.37,1.94,4.77,2.87,7.17l-64,4.39C798.5,493.85,807.93,476.45,824.25,473.19Z"></path><path class="cls-108" d="M875,584.25l-90,6.87c.23-11.19.64-27.15,2.4-43.75l79.67-5.45A302.21,302.21,0,0,1,875,584.25Z"></path><path class="cls-109" d="M857,510.69a290.8,290.8,0,0,1,10.08,31.23l-79.67,5.45A226.28,226.28,0,0,1,793,515.08Z"></path><path class="cls-110" d="M857,510.69a290.8,290.8,0,0,1,10.08,31.23l-79.67,5.45A226.28,226.28,0,0,1,793,515.08Z"></path><path class="cls-111" d="M875,584.25c.32,2.79.61,5.58.85,8.38l-91,6.13c0-2.18.1-4.75.16-7.64Z"></path><polygon class="cls-112" points="869.21 744.99 855.1 744.99 865.88 739.38 869.21 744.99"></polygon><polygon class="cls-112" points="809.47 743.51 795.36 743.51 806.14 737.9 809.47 743.51"></polygon><path class="cls-113" d="M832.11,474.17l-2.64-2.62a1.83,1.83,0,0,0-2.16-1.21l-9.73,2.31a2,2,0,0,0-1.52,1.72l-2.51,4.41Z"></path><path class="cls-114" d="M809.83,437.51c2.12-2.48,12.35.31,15.17,1.95s4.67,6.58,4.7,9.84a3,3,0,0,1-1.07,2.62c-1.13.7-2.56,0-3.74-.63a23.26,23.26,0,0,0-17.11-1.7,15,15,0,0,1-.36-3.45c.25-1.08.16-2.84.91-3.63C809.93,440.82,808.79,438.72,809.83,437.51Z"></path><path class="cls-115" d="M805.23,449.22c-1.27-.18-2.89-.72-2.56-1.62s1.78-.94,2.92-.92c7.43.16,15.08.36,21.73,2.54,4.69,1.55,9,1.77,11.48,3.37C839.31,456,809.71,449.88,805.23,449.22Z"></path><path class="cls-116" d="M773.23,563.73a17,17,0,0,1,2.16-3.14,5.66,5.66,0,0,1,3.26-1.86,4.8,4.8,0,0,1,4.12,1.6,6.36,6.36,0,0,1,1.57,4.22,7.41,7.41,0,0,1-10.48,6.91l-3.51-2.75Z"></path><path class="cls-37" d="M812,439.08a9.63,9.63,0,0,1-1.41,2.92,3.32,3.32,0,0,1-2.81,1.38l.45-1.95a9.68,9.68,0,0,1,.46-2C809,438.7,811.17,439.08,812,439.08Z"></path><path class="cls-117" d="M861.22,566.47A93,93,0,0,1,839,584.3c-.48-1.77-2.6-2.55-3.08-4.32a56.72,56.72,0,0,0,16.31-19.75,13.82,13.82,0,0,1,3.06,1A14.08,14.08,0,0,1,861.22,566.47Z"></path><path class="cls-118" d="M867.39,558.88a92.51,92.51,0,0,1-6.17,7.59,14.08,14.08,0,0,0-6-5.26,13.82,13.82,0,0,0-3.06-1,51.27,51.27,0,0,0,3.12-7.81,22.44,22.44,0,0,1,8.69,3.34A13,13,0,0,1,867.39,558.88Z"></path><path class="cls-119" d="M827.63,487.63c4.87-7.13,12-5.88,17-3.61a115.78,115.78,0,0,1,16.77,9,23.59,23.59,0,0,0-17.12,13,40,40,0,0,0-3,7.4c-2.06-1.06-4.17-2-6.19-3.15-3.68-2-7.13-4.64-8.91-8.61A14.73,14.73,0,0,1,827.63,487.63Z"></path><path class="cls-120" d="M862.29,508.4a24,24,0,0,1,11.91-2.62,35,35,0,0,1,5.63,16.62c.85,11.75-4.18,25.12-12.22,36.19l-.22.29a13,13,0,0,0-3.37-3.12,22.44,22.44,0,0,0-8.69-3.34,44.31,44.31,0,0,0,1.41-5.93c1.47-9.16-.37-17.87-4.83-24.26a25.13,25.13,0,0,1,1.1-3.16A21.66,21.66,0,0,1,862.29,508.4Z"></path><path class="cls-121" d="M853.8,495.77a25.69,25.69,0,0,1,7.55-2.73,55.37,55.37,0,0,1,5,3.79,41.9,41.9,0,0,1,7.87,8.95,24,24,0,0,0-11.91,2.62A21.66,21.66,0,0,0,853,519.07a25.13,25.13,0,0,0-1.1,3.16,24.4,24.4,0,0,0-5.8-5.93,39.07,39.07,0,0,0-4.88-2.88,40,40,0,0,1,3-7.4A25.61,25.61,0,0,1,853.8,495.77Z"></path><path class="cls-122" d="M885.81,623.38a94,94,0,0,1,4.53,8.53c.33.7.66,1.4,1,2.11.16.35.31.71.46,1.06a1.13,1.13,0,0,1,.06.14c.06.14.15.35.16.39.61,1.5,1.19,3,1.73,4.52a119.81,119.81,0,0,1,5.33,21c.15.93.29,1.86.43,2.8,0,.13.1.75.12.85l.18,1.46q.35,2.94.59,5.88c.33,4,.51,8,.58,12.07.13,7.92-.18,15.84-.75,23.74l-.06.75h9c1.06-14.36,1.33-28.83-.45-43.14-1.82-14.7-5.64-29-12.56-42.19A87.23,87.23,0,0,0,870,592.81c-11.6-8.28-25.48-12.43-39.25-15.43s-28-5.1-41.36-10.12c-.78-.29-1.55-.59-2.32-.91l-.58-.23.12,0c-.44-.19-1.66,1.84-2.11,1.65-2.14-1-4.13-2.24-5.35.07-1,2-.71,4.44,1.59,5.47,13.1,5.83,27.1,8.49,41.07,11.32,6.8,1.38,13.59,2.84,20.24,4.85,3.29,1,6.51,2.15,9.71,3.42h0l.4.18,1.13.5c.81.37,1.62.75,2.42,1.14,1.54.77,3.06,1.58,4.55,2.46s2.74,1.67,4.06,2.57l1.87,1.33.92.69c-.68-.51.22.17.44.35a72.63,72.63,0,0,1,7.05,6.42q1.73,1.78,3.34,3.67c.49.58,1,1.17,1.46,1.77l.72.9h0l.34.44A89,89,0,0,1,885.81,623.38Z"></path><polygon class="cls-112" points="753.38 562.35 785.88 567.05 783.79 574.66 752.42 567.59 753.38 562.35"></polygon><polygon class="cls-112" points="785.23 564.65 789.08 565.4 786.2 577.59 782.32 576.46 785.23 564.65"></polygon><path class="cls-116" d="M831.48,589.76a1.79,1.79,0,0,0,.12-.24l.7-6a11.54,11.54,0,0,1,.19-1.64v0h0a4.72,4.72,0,0,1,.43-1.33,11,11,0,0,1,2.14-2.59l7.11-7a7.13,7.13,0,0,1,2.91-2c1.87-.52,3.87.62,5,2.22,1,1.44,2.61,4.91,1.31,6.56-.88,1.1-2.61,1.8-3.78,2.54L843.21,583c-.85.53-2.73,1-2.32,1.88a1.15,1.15,0,0,1,.09.8h0l.39,5.54-6.53-1-.89,1-2.47-.73.08-.68Z"></path><path class="cls-116" d="M769.6,563.41c1.07.66,2.73.06,3.54,1,.49.58.38,1.48.75,2.15.53.95,1.78,1.16,2.64,1.82a3.88,3.88,0,0,1,1.33,2.67,11.68,11.68,0,0,1-.24,3.06,19.88,19.88,0,0,1-8.53-1.32,4.56,4.56,0,0,1-1.62-1C765.81,570.17,770.2,563.78,769.6,563.41Z"></path><path class="cls-123" d="M626.93,557c3.73,3.89,7.76,9.18,5.61,14.12a87.89,87.89,0,0,1-60.84-39.69c-3.77-6-6.83-12.61-7.73-19.65s.56-14.58,5-20.09,12.18-8.56,19-6.51c8.26,2.49,12.89,11.14,15.81,19.25,3.79,10.51,5.43,21,7.14,32C612.26,544.9,621.28,551.12,626.93,557Z"></path><path class="cls-124" d="M612.16,699.43c.37-2.65.69-5.36,1-8.11a52.71,52.71,0,0,1-33-3.23c.49,3.27,1,6.47,1.62,9.56A39,39,0,0,0,612.16,699.43Z"></path><path class="cls-125" d="M593.32,717.1a31.56,31.56,0,0,1-7-1.6c3.48,10.34,8.16,18.59,14.62,23.74,3.7-6.85,6.48-15.23,8.56-24.7A31.74,31.74,0,0,1,593.32,717.1Z"></path><path class="cls-126" d="M613.14,691.32c3.89-36.78,1.69-82.17,2-118.88l-46.37-2.9c6.46,34.16,5.83,81.59,11.38,118.55A52.71,52.71,0,0,0,613.14,691.32Z"></path><path class="cls-127" d="M581.78,697.65c.51,2.61,1.05,5.14,1.64,7.6a41.83,41.83,0,0,0,27.78.58c.35-2.09.67-4.23,1-6.4A39,39,0,0,1,581.78,697.65Z"></path><path class="cls-128" d="M583.42,705.25q1.3,5.4,2.92,10.25a31.11,31.11,0,0,0,23.18-1c.62-2.81,1.17-5.72,1.68-8.71A41.83,41.83,0,0,1,583.42,705.25Z"></path><path class="cls-129" d="M566.31,691.23c10.22-36.91,17.05-85.65,26.32-120.2l-55-3.44c.8,35-3.78,83.43-4.18,120.75A52.77,52.77,0,0,0,566.31,691.23Z"></path><path class="cls-130" d="M546.07,717.1a31.65,31.65,0,0,1-12-3.88c.92,12.78,3,22.55,6.92,27.49,6.64-4.34,12.19-13.08,17-24.62A31.55,31.55,0,0,1,546.07,717.1Z"></path><path class="cls-131" d="M533.47,697.08c0,2.42.07,4.79.14,7.09a41.84,41.84,0,0,0,28,2.36q1.13-3.25,2.19-6.7A39,39,0,0,1,533.47,697.08Z"></path><path class="cls-132" d="M533.48,688.34c0,3,0,5.91,0,8.74a39,39,0,0,0,30.32,2.75q1.29-4.17,2.52-8.6A52.77,52.77,0,0,1,533.48,688.34Z"></path><path class="cls-133" d="M533.61,704.17c.1,3.15.25,6.18.46,9.05A31.14,31.14,0,0,0,558,716.09q1.88-4.51,3.61-9.56A41.84,41.84,0,0,1,533.61,704.17Z"></path><path class="cls-106" d="M582.66,459.4a12.25,12.25,0,0,0,.87-1.87,7.33,7.33,0,0,1,1.6-2.07,1.46,1.46,0,0,1-1.68.09,2.19,2.19,0,0,1-.94-1.44,5.2,5.2,0,0,1,0-1.76c.09-.65.31-1.4.93-1.63a1.34,1.34,0,0,1,1.36.37,3.13,3.13,0,0,1,.69,1.28,6.89,6.89,0,0,1,3.86-5.2,11.09,11.09,0,0,1,4.64-.88,31.42,31.42,0,0,1,4.11.19,4.83,4.83,0,0,0-1.59-3.31,9.08,9.08,0,0,0-7.5-1.62c-3.84.71-7.48,3.37-8.5,7.14-.81,3,.07,6.13.46,9.2.12.87.18,1.75.22,2.62A3.21,3.21,0,0,0,582.66,459.4Z"></path><path class="cls-19" d="M596.39,456.94a4.81,4.81,0,0,0,3.48,1.34,11.53,11.53,0,0,1-2.14-8,11.32,11.32,0,0,0,.38-3.84,31.42,31.42,0,0,0-4.11-.19,11.09,11.09,0,0,0-4.64.88,6.89,6.89,0,0,0-3.86,5.2,3.13,3.13,0,0,0-.69-1.28,1.34,1.34,0,0,0-1.36-.37c-.62.23-.84,1-.93,1.63a5.2,5.2,0,0,0,0,1.76,2.19,2.19,0,0,0,.94,1.44,1.46,1.46,0,0,0,1.68-.09,7.33,7.33,0,0,0-1.6,2.07,12.25,12.25,0,0,1-.87,1.87,3.21,3.21,0,0,1-1.46,1.11,29.52,29.52,0,0,1-2.62,13.33l5.73,3.56a57.89,57.89,0,0,1,1.14-10.6,4.17,4.17,0,0,1,1.21-2.26,3.3,3.3,0,0,1,2.83-.38c1,.24,1.83.71,2.77,1a4.53,4.53,0,0,0,4-.42,4.27,4.27,0,0,0,1.42-3.8A12.55,12.55,0,0,0,596.39,456.94Z"></path><rect class="cls-134" x="555.49" y="450.03" width="7.12" height="5.7" transform="translate(172.48 -153.92) rotate(18.49)"></rect><path class="cls-135" d="M523.12,560.32h0a19.87,19.87,0,0,1-12.54-25.14l22.88-68.42a19.87,19.87,0,0,1,25.15-12.54h0a19.87,19.87,0,0,1,12.54,25.14l-22.88,68.42A19.87,19.87,0,0,1,523.12,560.32Z"></path><rect class="cls-136" x="530.31" y="476.66" width="39.74" height="5.53" transform="translate(180.44 -149.73) rotate(18.49)"></rect><rect class="cls-137" x="511.95" y="531.57" width="39.74" height="5.53" transform="translate(196.91 -141.07) rotate(18.49)"></rect><path class="cls-138" d="M582.53,473.19c-6.87-1.38-13.62,4.2-18.53,10s-8.33,13-11.38,20.34c-1,2.37-1.94,4.77-2.87,7.17l64,4.39C608.28,493.85,598.85,476.45,582.53,473.19Z"></path><path class="cls-139" d="M531.76,584.25l90,6.87c-.23-11.19-.64-27.15-2.4-43.75l-79.67-5.45A302.21,302.21,0,0,0,531.76,584.25Z"></path><path class="cls-140" d="M549.75,510.69a293.06,293.06,0,0,0-10.08,31.23l79.67,5.45a226.28,226.28,0,0,0-5.56-32.29Z"></path><path class="cls-141" d="M549.75,510.69a293.06,293.06,0,0,0-10.08,31.23l79.67,5.45a226.28,226.28,0,0,0-5.56-32.29Z"></path><path class="cls-142" d="M531.76,584.25c-.32,2.79-.61,5.58-.85,8.38l91,6.13c0-2.18-.1-4.75-.16-7.64Z"></path><polygon class="cls-112" points="537.57 744.99 551.68 744.99 540.91 739.38 537.57 744.99"></polygon><polygon class="cls-112" points="597.31 743.51 611.42 743.51 600.64 737.9 597.31 743.51"></polygon><path class="cls-143" d="M574.67,474.17l2.64-2.62a1.83,1.83,0,0,1,2.16-1.21l9.73,2.31a2,2,0,0,1,1.52,1.72l2.52,4.41Z"></path><path class="cls-144" d="M597,437.51c-2.13-2.48-12.36.31-15.18,1.95s-4.66,6.58-4.7,9.84a3,3,0,0,0,1.07,2.62c1.13.7,2.56,0,3.74-.63a23.26,23.26,0,0,1,17.11-1.7,15,15,0,0,0,.36-3.45c-.25-1.08-.16-2.84-.9-3.63C596.85,440.82,598,438.72,597,437.51Z"></path><path class="cls-145" d="M601.55,449.22c1.28-.18,2.89-.72,2.56-1.62s-1.78-.94-2.92-.92c-7.43.16-15.08.36-21.73,2.54-4.69,1.55-9,1.77-11.48,3.37C567.47,456,597.08,449.88,601.55,449.22Z"></path><path class="cls-116" d="M633.55,563.73a17,17,0,0,0-2.16-3.14,5.63,5.63,0,0,0-3.26-1.86,4.8,4.8,0,0,0-4.12,1.6,6.41,6.41,0,0,0-1.57,4.22,7.41,7.41,0,0,0,10.48,6.91l3.51-2.75Z"></path><path class="cls-37" d="M594.83,439.08a9.63,9.63,0,0,0,1.41,2.92,3.32,3.32,0,0,0,2.81,1.38l-.45-1.95a9.68,9.68,0,0,0-.46-2C597.8,438.7,595.61,439.08,594.83,439.08Z"></path><path class="cls-146" d="M545.56,566.47A93.18,93.18,0,0,0,567.8,584.3c.48-1.77,2.6-2.55,3.09-4.32a56.5,56.5,0,0,1-16.31-19.75,13.73,13.73,0,0,0-3.07,1A14.08,14.08,0,0,0,545.56,566.47Z"></path><path class="cls-147" d="M539.39,558.88a92.51,92.51,0,0,0,6.17,7.59,14.08,14.08,0,0,1,6-5.26,13.73,13.73,0,0,1,3.07-1,50.32,50.32,0,0,1-3.13-7.81,22.5,22.5,0,0,0-8.69,3.34A13,13,0,0,0,539.39,558.88Z"></path><path class="cls-148" d="M563.21,483.87c5.69-1.89,12.4-1.88,17.38,1.85a12.72,12.72,0,0,1,4.56,14.79c-2.23,6-7.88,10.19-12.69,14a131.85,131.85,0,0,1-15.75,10.86A101.39,101.39,0,0,1,537,534.34c-1.83.59-1,3.49.8,2.89,13.49-4.39,25.74-11.76,36.78-20.57,5.31-4.24,11-8.78,13.46-15.35a15.51,15.51,0,0,0-4.49-17c-5.77-5.11-14-5.66-21.14-3.31-1.82.61-1,3.51.8,2.89Z"></path><path class="cls-149" d="M579.15,487.63c-4.87-7.13-12-5.88-16.95-3.61a115.78,115.78,0,0,0-16.77,9,23.59,23.59,0,0,1,17.12,13,39.3,39.3,0,0,1,3,7.4c2.06-1.06,4.18-2,6.19-3.15,3.68-2,7.13-4.64,8.91-8.61A14.73,14.73,0,0,0,579.15,487.63Z"></path><path class="cls-150" d="M544.49,508.4a24,24,0,0,0-11.91-2.62A35,35,0,0,0,527,522.4c-.85,11.75,4.18,25.12,12.23,36.19l.21.29a13,13,0,0,1,3.37-3.12,22.5,22.5,0,0,1,8.69-3.34,44.31,44.31,0,0,1-1.41-5.93c-1.47-9.16.37-17.87,4.83-24.26a25.13,25.13,0,0,0-1.1-3.16A21.66,21.66,0,0,0,544.49,508.4Z"></path><path class="cls-151" d="M553,495.77a25.59,25.59,0,0,0-7.55-2.73,55.37,55.37,0,0,0-5,3.79,41.9,41.9,0,0,0-7.87,8.95,24,24,0,0,1,11.91,2.62,21.66,21.66,0,0,1,9.28,10.67,25.13,25.13,0,0,1,1.1,3.16,24.26,24.26,0,0,1,5.81-5.93,38.24,38.24,0,0,1,4.87-2.88,39.3,39.3,0,0,0-3-7.4A25.55,25.55,0,0,0,553,495.77Z"></path><path class="cls-122" d="M650.22,561.13l-.15-.13L531.7,591.66l1.5,5.81,119.44-30.94c-.26-.93-.58-1.85-.93-2.75A8.75,8.75,0,0,0,650.22,561.13Z"></path><path class="cls-152" d="M671.42,555.47,650.07,561l.15.13a8.75,8.75,0,0,1,1.49,2.65c.35.9.67,1.82.93,2.75L674,561Z"></path><path class="cls-116" d="M575.3,589.76l-.12-.24-.69-6a13.14,13.14,0,0,0-.2-1.64v0h0a5.07,5.07,0,0,0-.42-1.33,11.28,11.28,0,0,0-2.14-2.59l-7.12-7a7.13,7.13,0,0,0-2.91-2c-1.86-.52-3.87.62-5,2.22-1,1.44-2.62,4.91-1.31,6.56.87,1.1,2.6,1.8,3.77,2.54l4.39,2.76c.84.53,2.73,1,2.31,1.88a1.15,1.15,0,0,0-.09.8h0l-.39,5.54,6.53-1,.89,1,2.47-.73-.08-.68Z"></path><path class="cls-116" d="M637.18,563.41c-1.07.66-2.73.06-3.54,1-.49.58-.38,1.48-.75,2.15-.53.95-1.78,1.16-2.64,1.82a3.86,3.86,0,0,0-1.32,2.67,11.26,11.26,0,0,0,.23,3.06,19.88,19.88,0,0,0,8.53-1.32,4.48,4.48,0,0,0,1.62-1C641,570.17,636.58,563.78,637.18,563.41Z"></path><path class="cls-153" d="M753.71,733.56l-2.41.32-2.13-134-.3-18.7c-.07-4.7-1-14.66,4-15.78-1.11,4.14-.58,19.05-.53,24.55q.16,17.5.35,35l.68,69.59Z"></path><rect class="cls-154" x="947.21" y="656.16" width="39.98" height="83.22"></rect><rect class="cls-155" x="961.71" y="623.1" width="10.99" height="8.85"></rect><rect class="cls-156" x="934.85" y="664.72" width="4.22" height="18.52"></rect><rect class="cls-157" x="939.07" y="666.13" width="8.13" height="15.69"></rect><rect class="cls-158" x="995.26" y="664.72" width="4.22" height="18.52" transform="translate(1994.74 1347.95) rotate(180)"></rect><rect class="cls-159" x="987.13" y="666.13" width="8.13" height="15.69" transform="translate(1982.4 1347.95) rotate(180)"></rect><path class="cls-160" d="M987.19,649.09h-40v-1.57a20,20,0,0,1,20-20h0a20,20,0,0,1,20,20Z"></path><path class="cls-161" d="M986.62,656.16H947.78a3.54,3.54,0,0,1-3.54-3.53h0a3.55,3.55,0,0,1,3.54-3.54h38.84a3.54,3.54,0,0,1,3.54,3.54h0A3.53,3.53,0,0,1,986.62,656.16Z"></path><rect class="cls-162" x="941.15" y="726.96" width="52.09" height="12.42"></rect><path class="cls-163" d="M967.2,667.89a13.93,13.93,0,1,0,13.93,13.93A13.93,13.93,0,0,0,967.2,667.89Zm0,20.73a6.8,6.8,0,1,1,6.8-6.8A6.81,6.81,0,0,1,967.2,688.62Z"></path><rect class="cls-164" x="947.2" y="712.72" width="39.99" height="1"></rect><rect class="cls-165" x="955.32" y="713.22" width="1" height="13.74"></rect><rect class="cls-166" x="978.85" y="713.22" width="1" height="13.74"></rect><path class="cls-167" d="M956.68,649.09h-1c0-16.34,11-21.5,11.07-21.55h1.15C967.79,627.6,956.68,633.4,956.68,649.09Z"></path><path class="cls-168" d="M977.8,649.09h1c0-16.34-10.95-21.5-11.07-21.55h-1.15C966.69,627.6,977.8,633.4,977.8,649.09Z"></path><path class="cls-169" d="M652.88,566.47l6.37,19.77a4.72,4.72,0,0,1,2.85-.14c1.62.48,3.15,2,4.73,1.38,2.12-.79,1.72-4.39,3.73-5.44,2.29-1.19,4.67,2.1,7.24,1.87s3.41-3.32,5.29-4.93a4.66,4.66,0,0,1,.71-.48L674,561Z"></path><path class="cls-170" d="M677.8,583.91c-2.57.23-4.95-3.06-7.24-1.87-2,1.05-1.61,4.65-3.73,5.44-1.58.59-3.11-.9-4.73-1.38a4.72,4.72,0,0,0-2.85.14l1.7,5.27c16.35,6.63,26.07-7.26,26.07-7.26l-3.22-5.75a4.66,4.66,0,0,0-.71.48C681.21,580.59,680.27,583.69,677.8,583.91Z"></path><polygon class="cls-153" points="702.31 726.89 694.58 755.4 734.32 755.4 742.05 726.89 702.31 726.89"></polygon><polygon class="cls-153" points="745.71 726.89 737.97 755.4 748.19 755.4 755.92 726.89 745.71 726.89"></polygon><path class="cls-153" d="M675.36,726.89a4.81,4.81,0,0,0-4.8,4.79h0a4.81,4.81,0,0,0,4.8,4.8h-14a4.8,4.8,0,1,0,0,9.6H675a4.78,4.78,0,0,0,1.51,9.32h9.74L694,726.89Z"></path><path class="cls-153" d="M786.5,736.48H767.23a4.81,4.81,0,0,0,4.8-4.8h0a4.81,4.81,0,0,0-4.8-4.79h-3l-7.73,28.51h17.91a4.78,4.78,0,0,0,1.51-9.32h10.6a4.8,4.8,0,0,0,0-9.6Z"></path><polygon class="cls-171" points="694.03 726.89 686.29 755.4 694.58 755.4 702.31 726.89 694.03 726.89"></polygon><polygon class="cls-171" points="755.92 726.89 748.19 755.4 756.48 755.4 764.21 726.89 755.92 726.89"></polygon><polygon class="cls-171" points="742.05 726.89 734.32 755.4 737.97 755.4 745.71 726.89 742.05 726.89"></polygon></g></g></g></svg>